<svg width="151" height="21" viewBox="0 0 151 21" fill="none" xmlns="http://www.w3.org/2000/svg">
<g clip-path="url(#clip0_8918_3244)">
<path d="M53.0614 19.9512L51.1364 16.6179C52.0364 14.8929 52.0364 12.8596 52.0364 10.1846C52.0364 6.85124 52.0364 4.35124 50.1114 2.32624C49.4481 1.60248 48.6344 1.03271 47.7274 0.656967C46.8204 0.28122 45.8422 0.108604 44.8614 0.151244C43.8832 0.129661 42.9114 0.311892 42.0075 0.686344C41.1037 1.0608 40.2876 1.61927 39.6114 2.32624C37.6864 4.25958 37.6864 6.70958 37.6864 10.1512C37.6864 13.5929 37.5864 15.9846 39.6114 18.0012C40.2825 18.7189 41.0974 19.2868 42.003 19.6679C42.9087 20.0391 43.8832 20.2125 44.8614 20.1762C45.4086 20.1682 45.9535 20.1012 46.4864 19.9762L53.0614 19.9512ZM42.3447 15.6596C41.6447 14.8262 41.4447 13.9262 41.4447 10.1512C41.4447 6.37624 41.6864 5.45124 42.3447 4.64291C42.6651 4.32322 43.0442 4.06854 43.4614 3.89291C43.875 3.71669 44.3201 3.62598 44.7697 3.62624C45.2219 3.6269 45.6695 3.71755 46.0864 3.89291C46.5009 4.06874 46.8773 4.32346 47.1947 4.64291C47.8947 5.47624 48.0947 6.37624 48.0947 10.1512C48.0947 13.9262 47.8947 14.8429 47.1947 15.6596C46.8848 15.9883 46.5103 16.2493 46.0947 16.4262C45.6731 16.5929 45.2229 16.675 44.7697 16.6679C44.3182 16.677 43.8698 16.5918 43.453 16.4179C43.036 16.2429 42.6589 15.9849 42.3447 15.6596Z" fill="#202020"/>
<path d="M97.377 0.351196H101.102V19.9512H97.377V0.351196Z" fill="#202020"/>
<path d="M7.09453 20.1512C4.1862 20.1512 1.95286 19.5429 0.0195312 17.6012L2.44453 15.1512C3.07106 15.7225 3.80459 16.1639 4.60273 16.4499C5.40086 16.736 6.24778 16.8611 7.09453 16.8179C9.31953 16.8179 10.5279 15.9846 10.5279 14.3679C10.5394 14.067 10.4912 13.7668 10.3862 13.4846C10.2844 13.2048 10.1255 12.9494 9.91953 12.7346C9.4374 12.3203 8.83643 12.0694 8.20286 12.0179L5.85286 11.6929C4.45853 11.5742 3.14551 10.9868 2.12786 10.0262C1.65987 9.50669 1.29756 8.90096 1.0612 8.24289C0.812424 7.57484 0.701858 6.86325 0.736198 6.15122C0.719531 2.70122 3.24453 0.251221 7.51953 0.251221C10.1445 0.251221 12.1695 0.851221 13.7945 2.49289L11.3445 4.85122C10.8165 4.36256 10.1928 3.98879 9.51289 3.75354C8.83298 3.5183 8.11166 3.42671 7.39453 3.48455C5.36953 3.48455 4.36953 4.61789 4.36953 5.98455C4.38557 6.51514 4.59961 7.02051 4.96953 7.40122C5.49331 7.83575 6.12312 8.12333 6.79453 8.23455L9.11953 8.53455C10.5087 8.57213 11.8351 9.12109 12.8445 10.0762C13.3616 10.6371 13.7636 11.2939 14.0279 12.0096C14.2863 12.7333 14.4023 13.5001 14.3695 14.2679C14.3695 18.0262 11.1445 20.1762 7.0862 20.1762" fill="#202020"/>
<path d="M19.8105 19.9512V0.351196H32.6355V3.68453H23.6355V8.30953H31.3022V11.8179H23.6439V16.6262H32.6439V19.9595H19.8105" fill="#202020"/>
<path d="M64.8605 20.1512C60.9105 20.1512 57.6855 17.4012 57.6855 13.2179V0.351196H61.5439V13.1012C61.5439 15.3512 62.8689 16.6679 64.8772 16.6679C66.8856 16.6679 68.2106 15.3262 68.2106 13.1012V0.351196H71.9356V13.2012C71.9356 17.3679 68.8355 20.1345 64.8855 20.1345" fill="#202020"/>
<path d="M89.9037 18.0012C89.2396 18.7235 88.4256 19.2917 87.5186 19.666C86.6117 20.0403 85.6338 20.2116 84.6537 20.1679C83.6769 20.1946 82.7054 20.0154 81.8024 19.6421C80.8993 19.2689 80.0849 18.7098 79.412 18.0012C77.5203 16.0596 77.5203 13.6096 77.5203 10.1512C77.5203 6.6929 77.4203 4.3179 79.4537 2.30124C80.1113 1.58545 80.9175 1.02213 81.8157 0.650731C82.714 0.279336 83.6826 0.108856 84.6537 0.151238C85.6299 0.137548 86.5988 0.322565 87.5013 0.695038C88.4039 1.06751 89.2212 1.61966 89.9037 2.3179C91.8287 4.25957 91.8287 6.70957 91.8287 10.1679C91.8287 13.6262 91.8287 15.9846 89.9037 18.0012ZM87.0787 4.6679C86.7618 4.34817 86.3847 4.09438 85.9692 3.92118C85.5537 3.74798 85.108 3.6588 84.6578 3.6588C84.2077 3.6588 83.762 3.74798 83.3465 3.92118C82.931 4.09438 82.5539 4.34817 82.237 4.6679C81.5287 5.50124 81.337 6.40124 81.337 10.1762C81.337 13.9512 81.5287 14.8679 82.237 15.6762C82.5527 15.998 82.9294 16.2536 83.3451 16.4281C83.7608 16.6025 84.207 16.6924 84.6578 16.6924C85.1086 16.6924 85.5549 16.6025 85.9706 16.4281C86.3862 16.2536 86.7629 15.998 87.0787 15.6762C87.7787 14.8429 87.9787 13.9512 87.9787 10.1762C87.9787 6.40124 87.8037 5.45124 87.0787 4.6429V4.6679Z" fill="#202020"/>
<path d="M119.004 19.9512L117.895 16.4845H111.02L109.82 19.9512H105.854L112.954 0.351196H115.854L122.929 19.9512H119.004ZM114.445 6.05953L112.02 13.2012H116.87L114.445 6.05953Z" fill="#202020"/>
<path d="M145.17 0.351196H150.02V5.2512H145.17V0.351196Z" fill="#202020"/>
<path d="M133.044 15.7345V0.351196H130.619V18.2095L133.044 15.7345Z" fill="#202020"/>
<path d="M134.745 17.5012L132.32 19.9512H150.02V17.5012H134.745Z" fill="#202020"/>
<path d="M137.894 10.8595V0.351196H135.469V13.3095L137.894 10.8595Z" fill="#202020"/>
<path d="M139.595 12.6012L137.162 15.0512H150.02V12.6012H139.595Z" fill="#202020"/>
<path d="M142.736 5.98453V0.351196H140.311V8.40953L142.736 5.98453Z" fill="#202020"/>
<path d="M144.444 7.70129L142.027 10.1513H150.019V7.70129H144.444Z" fill="#202020"/>
</g>
<defs>
<clipPath id="clip0_8918_3244">
<rect width="150" height="20" fill="white" transform="translate(0.0195312 0.151245)"/>
</clipPath>
</defs>
</svg>
