<svg width="150" height="32" viewBox="0 0 150 32" fill="none" xmlns="http://www.w3.org/2000/svg">
<path fill-rule="evenodd" clip-rule="evenodd" d="M9.75325 15.3438C9.6032 16 9.20307 17.1609 8.95298 17.7161C8.45282 18.776 7.05235 20.0883 5.55185 20.0883C3.75125 20.0883 3.05102 19.1798 3.05102 18.2208C3.05102 17.5142 3.40113 17.0095 4.10137 17.0095C4.8016 17.0095 4.95165 17.6151 4.95165 17.817C4.95165 18.0694 4.85162 18.3722 4.75158 18.4732C4.65155 18.5741 4.65155 18.6751 4.65155 18.8265C4.65155 19.2303 5.1017 19.4322 5.50183 19.4322C6.50217 19.4322 7.05235 18.6246 7.40247 17.2618C7.65255 16.3533 8.00267 14.7886 8.7029 12.0631L8.60287 12.0126C8.35279 12.3659 7.2024 13.9811 4.55152 13.9811C1.85062 13.9811 0 12.0631 0 8.63092C0 6.10726 1.15038 3.93691 2.60087 2.42271C3.70123 1.3123 5.4018 0.100946 8.1027 0.100946C10.1534 0.100946 11.1537 0.757098 11.5539 1.11041C11.904 1.3123 12.054 1.36278 12.1541 1.36278C12.4041 1.36278 12.5042 1.16088 12.6042 0.706625C12.6042 0.605678 12.7042 0.605678 12.8043 0.605678L13.1044 0.706625C13.2044 0.706625 13.2544 0.757098 13.2044 0.858044L12.104 4.84543C12.054 4.94637 12.004 4.99685 11.904 4.94637L11.6039 4.8959C11.5038 4.8959 11.4538 4.79495 11.4538 4.69401C11.8039 2.97792 10.8036 0.908517 8.30277 0.908517C7.05235 0.908517 5.65188 1.36278 4.25142 3.17981C3.10103 4.64353 2.45082 6.76341 2.45082 9.13565C2.45082 12.3659 4.45148 12.8707 5.30177 12.8707C7.65255 12.8707 8.80294 10.8517 8.85295 9.69085C8.90297 8.93375 8.7029 8.78234 8.15272 8.78234H7.45248C7.30243 8.78234 7.25242 8.73186 7.30244 8.58044L7.40247 8.12618C7.40247 8.02524 7.45248 7.97476 7.60253 7.97476C7.90263 7.97476 8.60287 8.02524 10.3034 8.02524C11.6539 8.02524 12.104 7.97476 12.3541 7.97476C12.5042 7.97476 12.5542 8.02524 12.5542 8.12618V8.63092C12.5542 8.73186 12.5042 8.78234 12.3541 8.78234H11.954C11.6039 8.78234 11.3038 8.93375 11.0537 9.99369L9.75325 15.3438ZM24.8083 10.0946C24.7082 9.99369 24.6082 10.0442 24.5582 10.1451C24.2581 10.4984 23.2077 11.8612 22.7576 12.2145C22.2574 12.6688 21.7072 12.9716 21.057 12.9716H16.6556L18.5562 6.9653H19.5565C20.957 6.9653 21.7072 7.16719 21.7072 8.58044C21.7072 8.68139 21.7072 8.73186 21.8073 8.78234H22.1574C22.2574 8.78234 22.2574 8.78234 22.3074 8.68139C22.4075 7.92429 23.0077 5.50158 23.3078 4.74448C23.3578 4.69401 23.3078 4.64353 23.2077 4.64353L22.8576 4.54259C22.7576 4.54259 22.7576 4.59306 22.7076 4.64353C22.0073 6.2082 21.2571 6.30915 20.4068 6.30915H18.7062L20.3568 1.21136H23.4078C23.5078 1.21136 23.6579 1.26183 23.7579 1.36278L25.7586 3.68454C25.8586 3.78549 25.9086 3.83596 26.0087 3.78549L26.2588 3.68454C26.3588 3.5836 26.3588 3.5836 26.3588 3.48265L25.7586 0.858044C25.7086 0.454259 25.7086 0.353312 25.3585 0.353312C25.1584 0.353312 24.6582 0.353312 23.908 0.403786C23.1077 0.403786 22.0574 0.403786 20.6569 0.403786H19.2564C18.8063 0.403786 18.1561 0.403786 17.5559 0.353312C17.0057 0.353312 16.5555 0.353312 16.4055 0.353312C16.2554 0.353312 16.2054 0.403785 16.1554 0.504732L16.0554 0.958991C16.0053 1.05994 16.0554 1.16088 16.1554 1.16088H16.8056C17.4058 1.16088 18.106 1.41325 17.7559 2.52366L14.7549 11.9117C14.5549 12.5678 14.1547 12.9716 13.4045 12.9716H12.7543C12.6542 12.9716 12.6542 13.0221 12.6042 13.0726L12.5042 13.5773C12.5042 13.6782 12.5042 13.7287 12.6042 13.7287C12.7042 13.7287 13.0544 13.7287 13.4545 13.6782C13.9046 13.6782 14.4548 13.6782 15.055 13.6782H17.6059C18.9563 13.6782 20.3568 13.6782 21.4572 13.6782C22.5575 13.6782 23.3578 13.7287 23.5078 13.7287C23.7579 13.7287 23.858 13.6782 23.958 13.3754L24.9583 10.4984C25.0083 10.347 24.9583 10.2965 24.9083 10.2965L24.8083 10.0946ZM40.0133 5.90536C40.0133 2.27129 37.8126 0.15142 34.7116 0.15142C30.5102 0.15142 27.5592 3.98738 27.5592 8.12618C27.5592 9.89275 28.0594 11.5079 29.2598 12.6688C30.4602 13.8297 32.0107 13.9811 32.7609 13.9811C37.2124 13.9811 40.0133 9.84227 40.0133 5.90536ZM32.3108 2.52366C33.011 1.71609 33.9613 1.05994 35.1117 1.05994C36.8623 1.05994 37.8626 2.37224 37.8626 4.34069C37.8126 8.63092 35.2618 13.0221 32.4108 13.0221C30.8103 13.0221 29.5098 11.8612 29.5098 9.43849C29.5599 7.26814 30.7102 4.34069 32.3108 2.52366ZM45.2651 7.26814C45.8153 7.26814 46.6656 7.16719 47.1157 8.22713C47.3658 8.68139 49.0664 12.5678 49.3665 13.0221C49.6165 13.4763 49.7166 13.6782 49.9166 13.6782C50.2167 13.6782 50.5669 13.6278 51.7172 13.6278C52.7676 13.6278 53.0677 13.6782 53.2678 13.6782C53.3678 13.6782 53.4178 13.5773 53.4678 13.4763L53.5178 13.0726C53.5679 12.9716 53.5178 12.8707 53.4178 12.8707H52.9176C52.2174 12.8707 51.7673 12.5678 51.2171 11.7098C50.867 11.1546 49.5665 8.37855 49.4165 8.17666C49.2164 7.77287 48.9163 7.16719 48.2661 7.01577V6.91483C50.8169 6.66246 52.8676 5.04732 52.8676 3.12934C52.8676 0.403786 49.9166 0.252366 48.2661 0.252366C47.7159 0.252366 45.6652 0.302839 43.6646 0.302839C43.4645 0.302839 43.4145 0.353312 43.4145 0.454259L43.3144 0.858044C43.2644 0.958991 43.3144 1.00946 43.4645 1.00946H44.1147C44.7649 1.00946 44.915 1.36278 44.7149 2.01893L41.5639 12.0126C41.4138 12.5174 41.0637 12.9211 40.5635 12.9211H40.0634C39.9133 12.9211 39.8633 12.9716 39.8633 13.0726L39.7633 13.5268C39.7132 13.6278 39.7633 13.7287 39.8633 13.7287C40.1134 13.7287 40.8636 13.6782 42.2141 13.6782C43.9146 13.6782 44.7649 13.7287 45.015 13.7287C45.115 13.7287 45.2151 13.6782 45.2651 13.5773L45.3151 13.123C45.3651 13.0221 45.3151 12.9716 45.2151 12.9716H44.4148C43.8646 12.9716 43.6646 12.6183 43.9647 11.5584L45.2651 7.26814ZM47.1657 1.11041C47.4158 1.05994 47.6159 1.05994 47.966 1.05994C49.8666 1.05994 50.4668 2.32177 50.4668 3.17981C50.4668 4.59306 49.5665 5.70347 48.5662 6.15773C47.2157 6.71293 46.2154 6.61199 45.4151 6.61199L47.1657 1.11041ZM62.5208 11.9117C62.4208 12.2145 62.3208 12.5174 62.1207 12.6183C61.8706 12.8202 61.1704 13.0726 60.2201 13.0726C58.7196 13.0726 56.919 11.8107 56.919 8.78234C56.919 4.59306 59.5198 0.908517 62.5208 0.908517C65.0217 0.908517 65.872 2.97792 65.6219 4.69401C65.5719 4.84543 65.6219 4.94637 65.7219 4.94637H66.122C66.2221 4.99685 66.2721 4.94637 66.3221 4.84543L67.4725 0.908517C67.4725 0.807571 67.4225 0.757098 67.3725 0.757098L67.0724 0.656151C66.9723 0.605678 66.8723 0.656151 66.8723 0.757098C66.6722 1.16088 66.5722 1.36278 66.3221 1.36278C66.2221 1.36278 66.072 1.3123 65.872 1.11041C65.4718 0.807571 64.3715 0.100946 62.7209 0.100946C58.3194 0.100946 54.5182 3.78549 54.5182 8.58044C54.5182 11.4574 56.7189 13.9306 60.3701 13.9306C62.0707 13.9306 63.7212 13.2745 64.2714 13.0221C64.5215 12.9211 64.6216 12.8202 64.6716 12.5678L65.3218 9.53943C65.4218 9.0347 65.7719 8.88328 66.2721 8.88328H66.5722C66.6722 8.88328 66.7723 8.83281 66.7723 8.73186L66.8223 8.32808C66.8223 8.17666 66.7723 8.07571 66.6722 8.07571C66.4221 8.07571 65.922 8.12618 64.3715 8.12618C62.7709 8.12618 62.1207 8.07571 61.7706 8.07571C61.6706 8.07571 61.5705 8.12618 61.5705 8.22713L61.4705 8.63092C61.4705 8.73186 61.4705 8.83281 61.6706 8.83281H62.3208C62.871 8.83281 63.1711 8.98423 63.021 9.7918L62.5208 11.9117ZM78.8763 10.0946C78.7763 9.99369 78.6762 10.0442 78.6262 10.1451C78.3261 10.4984 77.2758 11.8612 76.8256 12.2145C76.3254 12.6688 75.7753 12.9716 75.125 12.9716H70.7236L72.6242 6.9653H73.6245C75.025 6.9653 75.7753 7.16719 75.7753 8.58044C75.7753 8.68139 75.7753 8.73186 75.8753 8.78234H76.2254C76.3254 8.78234 76.3254 8.78234 76.3755 8.68139C76.4755 7.92429 77.0757 5.50158 77.3758 4.74448C77.4258 4.69401 77.3758 4.64353 77.2758 4.64353L76.9257 4.54259C76.8256 4.54259 76.8256 4.59306 76.7756 4.64353C76.0754 6.2082 75.3251 6.30915 74.4748 6.30915H72.7743L74.4248 1.21136H77.4758C77.5759 1.21136 77.7259 1.26183 77.826 1.36278L79.8266 3.68454C79.9267 3.78549 79.9767 3.83596 80.0767 3.78549L80.3268 3.68454C80.4268 3.5836 80.4268 3.5836 80.4268 3.48265L79.8266 0.858044C79.7266 0.555205 79.7266 0.454259 79.3765 0.454259C79.1764 0.454259 78.6762 0.454259 77.926 0.504732C77.1257 0.504732 76.0754 0.504732 74.6749 0.504732H73.2744C72.8243 0.504732 72.1741 0.504732 71.5739 0.454259C71.0237 0.454259 70.5735 0.454259 70.4235 0.454259C70.2734 0.454259 70.2234 0.504732 70.1734 0.605678L70.0734 1.05994C70.0233 1.16088 70.0734 1.26183 70.1734 1.26183H70.8236C71.4238 1.26183 72.124 1.5142 71.7739 2.62461L68.7729 12.0126C68.5729 12.6688 68.1727 13.0726 67.4225 13.0726H66.7723C66.6722 13.0726 66.6722 13.123 66.6222 13.1735L66.5222 13.6782C66.5222 13.7792 66.5222 13.8297 66.6222 13.8297C66.7223 13.8297 67.0724 13.8297 67.4725 13.7792C67.9226 13.7792 68.4728 13.7792 69.073 13.7792H71.6239C72.9743 13.7792 74.3748 13.7792 75.4752 13.7792C76.5755 13.7792 77.3758 13.8297 77.5258 13.8297C77.7759 13.8297 77.876 13.7792 77.976 13.4763L78.9763 10.5994C79.0263 10.4479 78.9763 10.3975 78.9263 10.3975L78.8763 10.0946ZM86.6289 0.454259C84.5782 0.454259 83.6279 0.302839 83.2778 0.201893C83.1277 0.100946 83.0277 0.0504732 82.9777 0.0504732C82.8776 0.0504732 82.8276 0.15142 82.7776 0.252366C82.7276 0.353312 81.5272 3.12934 81.2771 3.5836C81.2271 3.68454 81.2271 3.73502 81.3271 3.78549L81.6272 3.98738C81.7272 3.98738 81.7773 3.98738 81.8773 3.88644C82.3274 3.33123 83.3778 2.17035 84.028 1.66562C84.4782 1.3123 85.3285 1.21136 87.1291 1.21136H87.6292L84.6282 10.9527C84.1781 12.4164 83.8279 12.9716 82.7276 12.9716H82.2274C82.0774 12.9716 82.0273 13.0221 81.9773 13.123L81.9273 13.5773C81.9273 13.6782 81.9773 13.7792 82.1274 13.7792C82.3274 13.7792 83.3778 13.7287 85.2784 13.7287C87.1291 13.7287 87.8793 13.7792 88.1794 13.7792C88.3295 13.7792 88.3795 13.7287 88.4295 13.5773L88.5295 13.1735C88.5295 13.0726 88.5295 12.9716 88.4295 12.9716H87.5792C86.5789 12.9716 86.3788 12.5174 86.7789 11.306L89.88 1.21136H90.2801C91.1804 1.21136 92.5809 1.41325 93.031 1.71609C93.2811 2.22082 93.6812 3.43218 93.8313 4.08833C93.9313 4.34069 93.9813 4.39117 94.0814 4.39117L94.3815 4.34069C94.4815 4.34069 94.5315 4.29022 94.5315 4.1388C94.4815 3.33123 94.6816 0.454259 94.7316 0.15142C94.7316 0.0504732 94.6316 0 94.5815 0C94.4815 0 94.4815 0.0504732 94.3815 0.100946C94.0313 0.302839 93.3311 0.454259 91.5805 0.454259H86.6289ZM107.186 5.90536C107.186 2.27129 104.985 0.15142 101.884 0.15142C97.7326 0.15142 94.7816 4.03786 94.7816 8.12618C94.7816 9.89275 95.2818 11.5079 96.4822 12.6688C97.6826 13.8297 99.2331 13.9811 99.9833 13.9811C104.435 13.9811 107.186 9.84227 107.186 5.90536ZM99.5332 2.52366C100.233 1.71609 101.184 1.05994 102.334 1.05994C104.085 1.05994 105.085 2.37224 105.085 4.34069C105.035 8.63092 102.484 13.0221 99.6332 13.0221C98.0327 13.0221 96.7323 11.8612 96.7323 9.43849C96.7323 7.26814 97.9327 4.34069 99.5332 2.52366ZM112.638 2.22082C112.788 1.41325 113.038 1.16088 113.688 1.16088H113.988C114.138 1.16088 114.188 1.05994 114.188 1.00946L114.288 0.555205C114.338 0.403785 114.288 0.353312 114.088 0.353312C113.838 0.353312 113.088 0.403786 111.887 0.403786C110.587 0.454259 109.787 0.353312 109.587 0.353312C109.437 0.353312 109.386 0.403785 109.336 0.504732L109.286 0.958991C109.286 1.11041 109.286 1.16088 109.487 1.16088H109.937C110.387 1.16088 110.437 1.5142 110.387 2.17035L108.986 13.224C108.886 13.7792 108.986 14.0315 109.236 14.0315C109.537 14.0315 109.737 13.7792 109.987 13.5268C110.687 12.6688 115.989 5.24921 116.189 4.99685C116.339 4.79495 116.489 4.79495 116.439 5.04732L115.889 13.3249C115.839 13.7792 115.939 14.0315 116.239 14.0315C116.539 14.0315 116.789 13.7287 117.039 13.3754C117.889 12.3155 120.44 8.52997 120.99 7.62145C121.44 6.81388 124.391 1.91798 124.592 1.66562C124.892 1.26183 125.242 1.11041 125.592 1.11041H125.942C126.042 1.11041 126.042 1.05994 126.092 0.958991L126.192 0.454259C126.192 0.353312 126.142 0.302839 125.992 0.302839C125.742 0.302839 125.192 0.353312 124.041 0.353312C123.041 0.353312 122.541 0.302839 122.291 0.302839C122.191 0.302839 122.091 0.353312 122.091 0.504732L121.991 0.908517C121.941 1.05994 122.041 1.11041 122.141 1.11041H122.441C123.041 1.11041 123.091 1.61514 122.891 2.11987C122.691 2.67508 121.841 4.49211 120.89 6.10726C120.49 6.76341 118.59 9.99369 118.189 10.3975C117.989 10.6498 117.889 10.5994 117.939 10.2461L118.94 2.01893C119.04 1.3123 119.19 1.11041 119.59 1.11041H119.89C120.04 1.11041 120.09 1.05994 120.14 0.958991L120.19 0.504732C120.19 0.403785 120.19 0.353312 119.99 0.353312C119.74 0.353312 119.24 0.403786 118.089 0.403786C116.889 0.403786 116.389 0.353312 116.189 0.353312C116.039 0.353312 115.989 0.403786 115.939 0.454259L115.839 1.00946C115.839 1.11041 115.889 1.16088 115.989 1.16088H116.239C116.589 1.16088 116.739 1.41325 116.739 1.81703C116.739 2.22082 116.489 3.02839 116.039 3.73502C115.939 3.83596 111.637 10.1956 111.487 10.2965C111.287 10.5489 111.137 10.448 111.187 10.1956L112.638 2.22082ZM122.241 11.7098C122.241 13.3249 123.591 14.183 124.992 14.183C127.843 14.183 129.593 11.9621 130.644 10.1451C131.644 8.42902 132.494 5.85489 132.944 3.33123C132.994 3.02839 133.094 3.02839 133.144 3.23028C134.095 7.11672 135.895 11.5079 138.096 14.4353C139.246 16 141.797 19.1798 145.799 19.1798C148.049 19.1798 149.1 18.0694 149.4 17.7161C149.75 17.3628 150 16.7571 150 16.5047C150 16.2019 149.85 15.8486 149.45 15.8486C149.05 15.8486 148.8 16.2524 148.6 17.1104C148.449 17.7666 147.749 18.2208 146.749 18.2208C143.348 18.2208 140.497 14.5868 139.497 12.8707C139.296 12.5174 138.946 12.1136 139.296 10.7003C140.547 5.04732 142.097 2.92744 143.448 1.96845C144.098 1.5142 144.448 1.41325 144.848 1.41325C145.098 1.41325 145.448 1.61514 145.549 1.86751C145.699 2.11987 145.999 2.42271 146.399 2.42271C146.899 2.42271 147.349 1.96845 147.349 1.41325C147.349 0.757098 146.799 0.0504732 145.649 0.0504732C144.848 0.0504732 143.898 0.252366 142.898 1.05994C140.747 2.72555 139.447 6.56152 138.596 10.448C138.496 10.8013 138.396 11.0032 138.296 10.7508C137.246 9.0347 135.395 3.98738 134.745 0.958991C134.645 0.656151 134.545 0.504732 134.195 0.504732C130.694 0.504732 128.693 0.353312 127.292 1.36278C126.392 2.01893 125.942 3.07886 125.942 4.08833C125.942 5.04732 126.542 5.80442 127.192 5.80442C127.793 5.80442 128.193 5.40063 128.193 4.94637C128.193 4.49211 127.943 4.1388 127.292 4.03786C126.892 3.93691 126.742 3.48265 126.742 3.23028C126.742 2.77603 127.493 2.22082 128.293 1.96845C129.393 1.61514 130.544 1.61514 131.744 1.61514C132.194 1.61514 132.394 1.76656 132.394 2.22082C132.394 4.18927 130.844 8.4795 129.443 10.448C128.593 11.6088 126.992 13.123 125.142 13.123C124.041 13.123 123.741 12.6688 123.841 12.3155C123.941 11.8612 124.492 11.6088 124.492 11.0536C124.492 10.3975 124.041 10.0946 123.541 10.0946C122.891 10.0946 122.241 10.6498 122.241 11.7098ZM27.059 20.694C27.3591 19.6845 27.7593 19.1293 28.4095 19.1293H28.7096C28.8596 19.1293 28.9096 19.0284 28.9096 18.9779L29.0097 18.5741C29.0597 18.4227 29.0097 18.3218 28.8096 18.3218C28.6095 18.3218 28.1594 18.3722 27.059 18.3722C25.8086 18.3722 25.0584 18.3218 24.8083 18.3218C24.6082 18.3218 24.5582 18.4227 24.5582 18.5237L24.5082 18.9779C24.5082 19.0789 24.5082 19.1293 24.7082 19.1293H25.3585C26.0087 19.1293 26.2087 19.5836 25.8086 20.9464L24.4081 25.9937C23.7579 28.164 23.1077 29.224 22.2074 29.9811C21.5572 30.5363 20.5569 30.8391 19.6566 30.8391C19.0564 30.8391 17.0057 30.5868 17.0057 28.2145C17.0057 27.3565 17.4558 25.8927 17.6059 25.489L19.2064 20.1893C19.5065 19.2303 20.0067 19.1293 20.3568 19.1293H20.907C21.007 19.1293 21.107 19.0284 21.107 18.9779L21.2071 18.5741C21.2071 18.4227 21.1571 18.3218 21.007 18.3218C20.8069 18.3218 20.1567 18.3722 18.5562 18.3722C16.7556 18.3722 16.1054 18.3218 15.8553 18.3218C15.6552 18.3218 15.6052 18.3722 15.6052 18.4732L15.5052 18.9274C15.4552 19.0284 15.5552 19.0789 15.6052 19.0789H16.3054C16.8556 19.0789 17.1057 19.3817 16.8556 20.2902L15.1551 25.7413C15.055 26.1956 14.7549 27.4069 14.7549 28.2145C14.7549 30.6372 16.6556 31.8486 19.1564 31.8486C22.7576 31.8486 24.3081 29.5268 25.3585 26.0442L27.059 20.694ZM37.1624 31.2429C37.2624 31.4953 37.4625 31.6467 37.6626 31.6467C37.7626 31.5962 37.9126 31.4448 38.0627 31.142L41.6639 20.7445C42.064 19.6341 42.4642 19.1293 42.9143 19.1293H43.4145C43.5145 19.1293 43.5645 19.0789 43.5645 18.9779L43.6646 18.6246C43.7146 18.4732 43.6646 18.3722 43.4645 18.3722C43.2144 18.3722 42.8143 18.4227 41.7639 18.4227C40.4135 18.4227 39.7633 18.3722 39.5132 18.3722C39.4131 18.3722 39.3631 18.4732 39.3131 18.5237L39.2631 18.9779C39.2131 19.1293 39.2631 19.1798 39.4632 19.1798H40.0634C40.7136 19.1798 40.8636 19.836 40.3635 21.4006L38.3128 27.8107C38.1627 28.265 38.0627 28.3155 37.9126 28.0631L33.5612 18.9274C33.4612 18.6751 33.3111 18.4227 32.961 18.4227C30.6602 18.4227 29.86 18.3722 29.6099 18.3722C29.4598 18.3722 29.4098 18.4732 29.3598 18.5741L29.2598 18.9274C29.2097 19.0789 29.2598 19.1798 29.4098 19.1798H30.1601C30.9603 19.1798 31.4105 19.735 31.0103 20.8959L28.6095 28.5174C28.0093 30.2839 27.5592 30.9401 26.6589 30.9401H26.2087C26.1087 30.9401 26.0587 31.041 26.0087 31.0915L25.9587 31.4953C25.9587 31.6467 25.9587 31.6972 26.1087 31.6972C26.3588 31.6972 26.959 31.6467 28.3595 31.6467C29.7099 31.6467 30.5102 31.6972 30.7102 31.6972C30.9103 31.6972 30.9103 31.6467 30.9603 31.4953L31.0604 31.0915C31.0604 30.9905 31.0103 30.8896 30.8603 30.8896H30.11C29.3098 30.8896 29.2097 29.9811 29.86 27.7098L31.8106 21.0978C31.8606 20.8454 32.0107 20.8454 32.1107 21.0473L37.1624 31.2429ZM43.5645 29.4763C43.3144 30.4858 43.1644 30.8896 42.014 30.8896H41.2638C41.1637 30.8896 41.1137 30.9401 41.1137 31.041L41.0137 31.4953C41.0137 31.5962 41.0637 31.6972 41.1637 31.6972C41.4138 31.6972 42.4141 31.6467 44.0647 31.6467C46.0654 31.6467 46.9657 31.6972 47.2157 31.6972C47.4158 31.6972 47.4158 31.6467 47.4658 31.4953L47.5158 31.0915C47.5659 30.9905 47.5158 30.8896 47.4158 30.8896H46.7156C45.9153 30.8896 45.6152 30.4858 45.8653 29.5268L48.3161 20.4416C48.6162 19.3312 49.0664 19.1293 49.8666 19.1293H50.3668C50.5168 19.1293 50.5669 19.0284 50.5669 18.9779L50.6669 18.5741C50.7169 18.4227 50.6169 18.3218 50.4168 18.3218C50.1667 18.3218 49.3164 18.3722 47.6159 18.3722C46.0654 18.3722 45.015 18.3218 44.7649 18.3218C44.6149 18.3218 44.5148 18.3722 44.5148 18.4227L44.4148 18.9274C44.4148 19.0284 44.4648 19.0789 44.6149 19.0789H45.5152C46.0153 19.0789 46.3154 19.3817 46.0654 20.3912L43.5645 29.4763ZM53.8179 28.0126C53.5679 28.3659 53.3178 28.3155 53.3678 27.8107L54.7182 19.8864C54.8183 19.3312 55.1684 19.0789 55.8186 19.0789H56.3688C56.5188 19.0789 56.5689 19.0284 56.5689 18.9274L56.6189 18.4732C56.6689 18.3218 56.6189 18.2713 56.4188 18.2713C56.1687 18.2713 55.3685 18.3218 53.968 18.3218C52.2674 18.3218 51.4672 18.2713 51.1671 18.2713C51.017 18.2713 51.017 18.3218 50.967 18.4732L50.867 18.877C50.8169 19.0284 50.917 19.0789 51.067 19.0789H51.7172C52.3675 19.0789 52.5175 19.5331 52.4675 20.1388L50.917 31.2429C50.8169 31.6972 50.867 32 51.1671 32C51.4171 32 51.6672 31.7981 51.8173 31.6467L60.1701 21.0473C60.9203 20.0883 61.9206 19.0789 62.6209 19.0789H63.071C63.1711 19.0789 63.2211 18.9779 63.2711 18.877L63.3211 18.4732C63.3211 18.3722 63.3211 18.2713 63.121 18.2713C62.871 18.2713 62.3708 18.3218 61.2204 18.3218C60.1701 18.3218 59.5198 18.2713 59.2197 18.2713C59.0197 18.2713 58.9697 18.3218 58.9697 18.4227L58.8696 18.877C58.8696 18.9779 58.8696 19.0789 59.0697 19.0789H59.4698C60.02 19.0789 59.92 19.7855 59.2197 20.694L53.8179 28.0126ZM72.2741 28.0631C72.1741 27.9621 72.074 28.0126 72.024 28.1136C71.7239 28.4669 70.6736 29.8297 70.2234 30.183C69.7232 30.6372 69.1731 30.9401 68.5229 30.9401H64.1214L66.022 24.9338H67.0223C68.4228 24.9338 69.1731 25.1356 69.1731 26.5489C69.1731 26.6498 69.1731 26.7003 69.2731 26.7508H69.6232C69.7232 26.7508 69.7232 26.7508 69.7733 26.6498C69.8733 25.8927 70.4735 23.47 70.7736 22.7129C70.8236 22.6625 70.7736 22.612 70.6736 22.612L70.3234 22.511C70.2234 22.511 70.2234 22.5615 70.1734 22.612C69.4732 24.1767 68.7229 24.2776 67.8726 24.2776H66.1721L67.8226 19.1798H70.8736C70.9737 19.1798 71.1237 19.2303 71.2237 19.3312L73.2244 21.653C73.3244 21.7539 73.3745 21.8044 73.4745 21.7539L73.7246 21.653C73.8246 21.5521 73.8246 21.5521 73.8246 21.4511L73.2244 18.8265C73.1244 18.5237 73.1244 18.4227 72.7743 18.4227C72.5742 18.4227 72.074 18.4227 71.3238 18.4732C70.5235 18.4732 69.4732 18.4732 68.0727 18.4732H66.6722C66.2221 18.4732 65.5719 18.4732 64.9717 18.4227C64.4215 18.4227 63.9713 18.4227 63.8213 18.4227C63.6712 18.4227 63.6212 18.4732 63.5712 18.5741L63.4712 19.0284C63.4211 19.1293 63.4712 19.2303 63.5712 19.2303H64.2214C64.8216 19.2303 65.5218 19.4827 65.1717 20.5931L62.1707 29.9811C61.9707 30.6372 61.5705 31.041 60.8203 31.041H60.1701C60.07 31.041 60.07 31.0915 60.02 31.142L59.92 31.6467C59.92 31.7476 59.92 31.7981 60.02 31.7981C60.12 31.7981 60.4702 31.7981 60.8703 31.7476C61.3204 31.7476 61.8706 31.7476 62.4708 31.7476H65.0217C66.3721 31.7476 67.7726 31.7476 68.873 31.7476C69.9733 31.7476 70.7736 31.7981 70.9237 31.7981C71.1737 31.7981 71.2738 31.7476 71.3738 31.4448L72.3741 28.5678C72.4241 28.4164 72.3741 28.3659 72.3241 28.3659L72.2741 28.0631ZM78.4261 25.2366C78.9763 25.2366 79.8266 25.1357 80.2768 26.1956C80.5268 26.6498 82.2274 30.5363 82.5275 30.9905C82.7776 31.4448 82.8776 31.6467 83.0777 31.6467C83.3778 31.6467 83.7279 31.5962 84.8783 31.5962C85.9286 31.5962 86.2288 31.6467 86.4288 31.6467C86.5289 31.6467 86.5789 31.5457 86.6289 31.4448L86.6789 31.041C86.7289 30.9401 86.6789 30.8391 86.5789 30.8391H86.0787C85.3785 30.8391 84.9283 30.5363 84.3781 29.6782C84.028 29.123 82.7276 26.347 82.5775 26.1451C82.3775 25.7413 82.0774 25.1356 81.4271 24.9842V24.8833C83.978 24.6309 86.0287 23.0158 86.0287 21.0978C86.0287 18.3722 83.0777 18.2208 81.4271 18.2208C80.877 18.2208 78.8263 18.2713 76.8256 18.2713C76.6255 18.2713 76.5755 18.3218 76.5755 18.4227L76.4755 18.8265C76.4255 18.9274 76.4755 18.9779 76.6255 18.9779H77.2758C77.926 18.9779 78.076 19.3312 77.876 19.9874L74.7249 29.8297C74.5749 30.3344 74.2247 30.7382 73.7246 30.7382H73.2244C73.0744 30.7382 73.0243 30.7886 73.0243 30.8896L72.9243 31.3439C72.8743 31.4448 72.9243 31.5457 73.0243 31.5457C73.2744 31.5457 74.0247 31.4953 75.3751 31.4953C77.0757 31.4953 77.926 31.5457 78.1761 31.5457C78.2761 31.5457 78.3761 31.4953 78.4261 31.3943L78.4762 30.9401C78.5262 30.8391 78.4762 30.7886 78.3761 30.7886H77.5759C77.0257 30.7886 76.8256 30.4353 77.1257 29.3754L78.4261 25.2366ZM80.3268 19.0284C80.5769 18.9779 80.7769 18.9779 81.127 18.9779C83.0277 18.9779 83.6279 20.2397 83.6279 21.0978C83.6279 22.511 82.7276 23.6215 81.7273 24.0757C80.3768 24.6309 79.3765 24.53 78.5762 24.53L80.3268 19.0284ZM96.9823 18.4732C96.9823 18.3722 96.9323 18.3722 96.8323 18.3722L96.5822 18.3218C96.4322 18.3218 96.3821 18.3218 96.3821 18.4227C96.2821 18.8265 96.1821 19.0789 96.082 19.0789C95.982 19.0789 95.882 19.0284 95.832 18.9779C95.5319 18.7256 94.5815 18.0694 93.5312 18.0694C90.9803 18.0694 89.88 20.1388 89.88 21.5521C89.88 23.571 90.8803 24.6309 92.1307 25.9432C92.981 26.9022 93.9813 27.6593 93.9813 28.9211C93.9813 30.0315 93.1311 30.9905 91.8806 30.9905C90.6802 30.9905 89.1297 29.6278 89.6799 26.8013C89.6799 26.7003 89.6299 26.6498 89.5799 26.5994L89.2798 26.4984C89.1797 26.4984 89.1297 26.4984 89.0797 26.5994L87.6292 30.8896C87.5792 31.041 87.5792 31.041 87.7292 31.0915L87.9793 31.1924C88.0794 31.2429 88.1294 31.1924 88.1794 31.0915C88.3295 30.8391 88.5295 30.4858 88.6295 30.3344C88.7296 30.2334 88.9296 30.183 89.1297 30.3849C89.7799 31.0915 90.6802 31.8486 91.9307 31.8486C93.9813 31.8486 95.7819 30.4858 95.7819 27.9621C95.7819 25.7918 94.4815 24.6814 93.5812 23.7729C92.6809 22.8644 91.8306 22.2082 91.8306 20.8454C91.8306 19.9874 92.4808 18.9274 93.5812 18.9274C95.5819 18.9274 95.832 21.2997 95.6819 22.1073C95.6819 22.2082 95.7319 22.3091 95.882 22.3091H96.2321C96.3321 22.3091 96.3321 22.2587 96.3821 22.2082L96.9823 18.4732ZM98.5829 29.4763C98.3328 30.4858 98.1827 30.8896 97.0323 30.8896H96.2821C96.1821 30.8896 96.132 30.9401 96.132 31.041L96.032 31.4953C96.032 31.5962 96.082 31.6972 96.1821 31.6972C96.4322 31.6972 97.4325 31.6467 99.083 31.6467C101.084 31.6467 101.984 31.6972 102.234 31.6972C102.434 31.6972 102.434 31.6467 102.484 31.4953L102.534 31.0915C102.584 30.9905 102.534 30.8896 102.434 30.8896H101.734C100.934 30.8896 100.634 30.4858 100.884 29.5268L103.334 20.4416C103.635 19.3312 104.085 19.1293 104.885 19.1293H105.385C105.535 19.1293 105.585 19.0284 105.585 18.9779L105.685 18.5741C105.735 18.4227 105.635 18.3218 105.435 18.3218C105.185 18.3218 104.335 18.3722 102.634 18.3722C101.084 18.3722 100.033 18.3218 99.7833 18.3218C99.6332 18.3218 99.5332 18.3722 99.5332 18.4227L99.4332 18.9274C99.4332 19.0284 99.4832 19.0789 99.6332 19.0789H100.534C101.034 19.0789 101.334 19.3817 101.084 20.3912L98.5829 29.4763ZM110.737 18.3722C108.686 18.3722 107.786 18.2208 107.386 18.1199C107.236 18.0189 107.136 17.9685 107.086 17.9685C106.986 17.9685 106.936 18.0694 106.886 18.1703C106.836 18.2713 105.635 21.0473 105.385 21.5016C105.335 21.6025 105.335 21.653 105.435 21.7035L105.735 21.9054C105.835 21.9054 105.885 21.9054 105.985 21.8044C106.435 21.2492 107.486 20.0883 108.136 19.5836C108.586 19.2303 109.436 19.1293 111.237 19.1293H111.737L108.736 28.8707C108.286 30.3344 107.936 30.8896 106.836 30.8896H106.335C106.185 30.8896 106.135 30.9401 106.085 31.041L106.035 31.4953C106.035 31.5962 106.085 31.6972 106.235 31.6972C106.435 31.6972 107.486 31.6467 109.386 31.6467C111.237 31.6467 111.987 31.6972 112.287 31.6972C112.437 31.6972 112.488 31.6467 112.538 31.4953L112.638 31.0915C112.638 30.9905 112.638 30.8896 112.538 30.8896H111.737C110.737 30.8896 110.537 30.4353 110.937 29.224L114.038 19.1293H114.438C115.338 19.1293 116.739 19.3312 117.189 19.6341C117.439 20.1388 117.839 21.3502 117.989 22.0063C118.089 22.2587 118.139 22.3091 118.239 22.3091L118.54 22.2587C118.64 22.2587 118.69 22.2082 118.69 22.0568C118.64 21.2492 118.84 18.3722 118.89 18.0694C118.89 17.9685 118.79 17.918 118.74 17.918C118.64 17.918 118.64 17.9685 118.54 18.0189C118.189 18.2208 117.489 18.3722 115.739 18.3722H110.737ZM125.042 27.6088C125.242 26.7508 125.442 26.347 125.692 25.8927C125.942 25.4385 129.543 20.3912 129.843 19.9874C130.243 19.4322 130.644 19.1293 131.294 19.1293H131.644C131.744 19.1293 131.794 19.0789 131.794 18.9274L131.894 18.5237C131.894 18.4227 131.844 18.3218 131.694 18.3218C131.444 18.3218 130.844 18.3722 129.593 18.3722C128.493 18.3722 127.743 18.3218 127.493 18.3218C127.292 18.3218 127.242 18.3722 127.242 18.4732L127.192 18.9274C127.142 19.0284 127.192 19.1293 127.292 19.1293H127.743C128.393 19.1293 128.643 19.4322 128.393 20.1893C128.193 20.795 125.442 24.9338 125.142 25.388C124.992 25.6404 124.842 25.6404 124.742 25.3375L123.191 20.0379C123.091 19.6341 123.091 19.1798 123.691 19.1798H124.191C124.291 19.1798 124.341 19.1293 124.391 19.0284L124.441 18.5741C124.441 18.4732 124.391 18.4227 124.241 18.4227C123.991 18.4227 123.341 18.4732 121.641 18.4732C120.09 18.4732 119.54 18.4227 119.29 18.4227C119.19 18.4227 119.14 18.4732 119.09 18.5741L118.99 19.0284C118.99 19.1293 119.04 19.1798 119.14 19.1798H119.59C120.24 19.1798 120.64 19.4322 120.79 19.9369L122.841 25.9937C122.941 26.2461 122.941 26.7508 122.891 27.0032L122.241 29.9306C122.141 30.4858 121.841 30.9401 120.94 30.9401H120.49C120.34 30.9401 120.29 31.041 120.29 31.0915L120.19 31.5457C120.19 31.6972 120.24 31.7476 120.34 31.7476C120.59 31.7476 121.14 31.6972 122.941 31.6972C124.492 31.6972 125.142 31.7476 125.442 31.7476C125.592 31.7476 125.642 31.6467 125.642 31.5457L125.742 31.0915C125.742 30.9905 125.692 30.9401 125.592 30.9401H125.142C124.492 30.9401 124.241 30.8391 124.441 29.8297L125.042 27.6088Z" fill="#202020"/>
</svg>
