<svg width="122" height="40" viewBox="0 0 122 40" fill="none" xmlns="http://www.w3.org/2000/svg">
<path d="M29.9848 14.1289H15.7556V18.3537H25.8479C25.3478 24.2672 20.4233 26.8055 15.7726 26.8055C14.2993 26.812 12.8395 26.5247 11.4784 25.9605C10.1172 25.3962 8.88207 24.5663 7.84499 23.5192C6.80792 22.472 5.98971 21.2286 5.43813 19.8616C4.88656 18.4946 4.61267 17.0313 4.63246 15.5572C4.63246 9.16148 9.58088 4.2373 15.7863 4.2373C20.5733 4.2373 23.3942 7.29074 23.3942 7.29074L26.3491 4.22706C26.3491 4.22706 22.5531 0 15.6317 0C6.81799 0 0 7.44313 0 15.4822C0 23.3597 6.41339 31.0417 15.8545 31.0417C24.159 31.0417 30.2383 25.3487 30.2383 16.931C30.2383 15.1546 29.9803 14.1289 29.9803 14.1289H29.9848Z" fill="#202020"/>
<path d="M41.6433 11.0675C35.8038 11.0675 31.6191 15.6358 31.6191 20.9614C31.6191 26.3678 35.6765 31.0201 41.7114 31.0201C47.1736 31.0201 51.6481 26.8431 51.6481 21.0774C51.6481 14.4815 46.4428 11.0664 41.6433 11.0664V11.0675ZM41.7001 14.9864C44.5709 14.9864 47.2918 17.3098 47.2918 21.0524C47.2918 24.7142 44.5823 27.1047 41.6864 27.1047C38.5042 27.1047 36.0038 24.555 36.0038 21.0228C36.0038 17.5656 38.4815 14.9864 41.7092 14.9864H41.7001Z" fill="#202020"/>
<path d="M63.4421 11.0675C57.6026 11.0675 53.418 15.6358 53.418 20.9614C53.418 26.3678 57.4754 31.0201 63.5103 31.0201C68.9724 31.0201 73.4469 26.8431 73.4469 21.0774C73.4469 14.4815 68.2416 11.0664 63.4421 11.0664V11.0675ZM63.4989 14.9864C66.3698 14.9864 69.0906 17.3098 69.0906 21.0524C69.0906 24.7142 66.3811 27.1047 63.4853 27.1047C60.303 27.1047 57.8027 24.555 57.8027 21.0228C57.8027 17.5656 60.2803 14.9864 63.508 14.9864H63.4989Z" fill="#202020"/>
<path d="M84.8237 11.082C79.4639 11.082 75.252 15.7788 75.252 21.0509C75.252 27.0555 80.1356 31.038 84.7305 31.038C87.5718 31.038 89.0834 29.9088 90.1858 28.6135V30.5809C90.1858 34.0233 88.0969 36.085 84.9442 36.085C81.8983 36.085 80.3708 33.8186 79.8299 32.5335L75.9975 34.1256C77.3568 37.0028 80.0935 40.0016 84.976 40.0016C90.3177 40.0016 94.366 36.6434 94.366 29.5995V11.6813H90.2018V13.3713C88.9175 11.9839 87.1581 11.082 84.826 11.082H84.8237ZM85.2102 14.9941C87.8378 14.9941 90.5359 17.239 90.5359 21.0725C90.5359 24.9698 87.8423 27.1169 85.1522 27.1169C82.295 27.1169 79.6367 24.797 79.6367 21.1089C79.6367 17.2788 82.3984 14.9929 85.2102 14.9929V14.9941Z" fill="#202020"/>
<path d="M112.976 11.0547C107.921 11.0547 103.676 15.0805 103.676 21.0168C103.676 27.3011 108.407 31.0278 113.45 31.0278C117.669 31.0278 120.269 28.7192 121.803 26.6494L118.356 24.3545C117.462 25.7419 115.966 27.1009 113.471 27.1009C110.669 27.1009 109.38 25.5657 108.581 24.0759L121.95 18.5262L121.268 16.9C119.977 13.7158 116.964 11.0547 112.977 11.0547H112.976ZM113.15 14.8917C114.972 14.8917 116.282 15.8606 116.839 17.0228L107.91 20.7563C107.524 17.8655 110.263 14.8917 113.138 14.8917H113.15Z" fill="#202020"/>
<path d="M97.293 30.4404H101.684V1.03516H97.293V30.4404Z" fill="#202020"/>
</svg>
