<svg width="71" height="36" viewBox="0 0 71 36" fill="none" xmlns="http://www.w3.org/2000/svg">
<g clip-path="url(#clip0_3056_3169)">
<path d="M15.896 23.5802C15.896 25.5922 16.3233 27.1368 16.8822 28.0713C17.6149 29.2954 18.7075 29.815 19.8215 29.815C21.2581 29.815 22.5725 29.4466 25.1054 25.8275C27.1351 22.9268 29.5256 18.8553 31.1345 16.3027L33.859 11.9782C35.7515 8.97488 37.9421 5.63631 40.4538 3.3733C42.5049 1.52611 44.7162 0.5 46.9423 0.5C50.6798 0.5 54.2397 2.73741 56.9642 6.93368C59.9459 11.5292 61.3932 17.318 61.3932 23.2915C61.3932 26.8428 60.7157 29.4521 59.5626 31.5136C58.4489 33.5071 56.2777 35.4991 52.6255 35.4991V29.8141C55.7528 29.8141 56.533 26.8455 56.533 23.4482C56.533 18.607 55.4404 13.2345 53.0334 9.39556C51.3254 6.67257 49.1118 5.00881 46.6763 5.00881C44.0422 5.00881 41.9225 7.06148 39.5403 10.7203C38.2737 12.6646 36.9736 15.0338 35.5137 17.7073L33.9066 20.6484C30.6787 26.5625 29.8609 27.9089 28.2467 30.1311C25.4177 34.0227 23.0017 35.4982 19.8215 35.4982C16.0486 35.4982 13.6629 33.8104 12.1853 31.2671C10.9792 29.1948 10.3867 26.4753 10.3867 23.3769L15.896 23.5802Z" fill="#202020"/>
<path d="M14.7305 7.33495C17.2563 3.31282 20.9014 0.5 25.0822 0.5C27.5034 0.5 29.9108 1.24029 32.4238 3.36049C35.1731 5.67802 38.1034 9.49643 41.7592 15.7869L43.07 18.0437C46.2344 23.4897 48.0347 26.2915 49.0884 27.6127C50.4434 29.3093 51.3925 29.8152 52.6252 29.8152C55.7525 29.8152 56.5328 26.8466 56.5328 23.4493L61.393 23.2917C61.393 26.843 60.7155 29.4524 59.5624 31.5139C58.4486 33.5074 56.2775 35.4993 52.6252 35.4993C50.3547 35.4993 48.3434 34.9899 46.119 32.822C44.4098 31.1583 42.41 28.2027 40.8721 25.5457L36.2976 17.6517C34.0025 13.6901 31.8963 10.7362 30.6785 9.39843C29.3675 7.9598 27.6824 6.22275 24.9933 6.22275C22.8171 6.22275 20.9687 7.80044 19.4221 10.2138L14.7305 7.33495Z" fill="#202020"/>
<path d="M24.9936 6.22275C22.8173 6.22275 20.969 7.80044 19.4224 10.2138C17.2352 13.6238 15.8971 18.7032 15.8971 23.5811C15.8971 25.5931 16.3244 27.1377 16.8833 28.0722L12.1853 31.268C10.9792 29.1957 10.3867 26.4762 10.3867 23.3778C10.3867 17.7431 11.8838 11.8702 14.7307 7.33495C17.2566 3.31282 20.9017 0.5 25.0825 0.5L24.9936 6.22275Z" fill="#202020"/>
</g>
<defs>
<clipPath id="clip0_3056_3169">
<rect width="70" height="35" fill="white" transform="translate(0.890625 0.5)"/>
</clipPath>
</defs>
</svg>
