<svg width="154" height="32" viewBox="0 0 154 32" fill="none" xmlns="http://www.w3.org/2000/svg">
<g clip-path="url(#clip0_3056_3175)">
<path d="M153.315 14.4774V11.8414H149.969V7.74325L149.856 7.77715L146.714 8.71781L146.652 8.7363V11.8414H141.691V10.1118C141.691 9.30631 141.876 8.6899 142.238 8.27883C142.599 7.87266 143.114 7.66622 143.771 7.66622C144.244 7.66622 144.733 7.77515 145.225 7.98993L145.349 8.04376V5.26762L145.291 5.24678C144.831 5.08529 144.206 5.00391 143.432 5.00391C142.456 5.00391 141.569 5.21161 140.796 5.6234C140.022 6.03574 139.414 6.62442 138.987 7.37297C138.562 8.12061 138.347 8.98406 138.347 9.93959V11.8414H136.017V14.4774H138.347V25.5825H141.691V14.4774H146.652V21.5346C146.652 24.441 148.053 25.914 150.817 25.914C151.271 25.914 151.749 25.8618 152.237 25.7598C152.734 25.6552 153.072 25.5506 153.271 25.439L153.315 25.4136V22.7531L153.179 22.8412C152.998 22.9597 152.772 23.0563 152.506 23.1281C152.24 23.2013 152.018 23.2381 151.846 23.2381C151.198 23.2381 150.719 23.0674 150.422 22.7306C150.122 22.3908 149.969 21.7963 149.969 20.9649V14.4774H153.315ZM128.547 23.2384C127.333 23.2384 126.376 22.8445 125.702 22.0688C125.023 21.2891 124.679 20.1775 124.679 18.7652C124.679 17.3082 125.023 16.1678 125.702 15.3743C126.377 14.5861 127.325 14.1861 128.52 14.1861C129.68 14.1861 130.603 14.5681 131.264 15.3223C131.929 16.0803 132.266 17.2116 132.266 18.6857C132.266 20.1779 131.949 21.3241 131.324 22.0907C130.703 22.8518 129.769 23.2384 128.547 23.2384ZM128.696 11.5103C126.38 11.5103 124.541 12.1742 123.229 13.4837C121.918 14.7934 121.254 16.6057 121.254 18.8709C121.254 21.0223 121.902 22.7528 123.182 24.0136C124.462 25.2748 126.203 25.9137 128.357 25.9137C130.603 25.9137 132.406 25.2406 133.717 23.913C135.028 22.5866 135.692 20.7916 135.692 18.5793C135.692 16.3942 135.069 14.6508 133.839 13.3984C132.609 12.1454 130.878 11.5103 128.696 11.5103ZM115.861 11.5103C114.285 11.5103 112.982 11.9045 111.987 12.6818C110.985 13.4637 110.477 14.4894 110.477 15.7304C110.477 16.3754 110.587 16.9485 110.803 17.4345C111.02 17.9222 111.356 18.3514 111.802 18.7117C112.245 19.0691 112.929 19.4436 113.835 19.8244C114.597 20.131 115.165 20.3906 115.526 20.595C115.879 20.7953 116.129 20.9968 116.27 21.1929C116.408 21.3849 116.478 21.6475 116.478 21.9719C116.478 22.895 115.771 23.3441 114.317 23.3441C113.778 23.3441 113.162 23.2341 112.488 23.0168C111.814 22.7999 111.184 22.4879 110.616 22.0879L110.477 21.9906V25.1408L110.528 25.164C111.001 25.3777 111.598 25.5579 112.301 25.6998C113.003 25.8417 113.641 25.914 114.195 25.914C115.905 25.914 117.281 25.5178 118.286 24.7359C119.297 23.9486 119.809 22.8988 119.809 21.6147C119.809 20.6885 119.533 19.8941 118.99 19.2536C118.45 18.6182 117.513 18.0349 116.205 17.5193C115.164 17.1104 114.497 16.7709 114.222 16.5105C113.957 16.2587 113.822 15.9027 113.822 15.452C113.822 15.0523 113.988 14.7323 114.329 14.4729C114.673 14.2123 115.152 14.0798 115.753 14.0798C116.31 14.0798 116.88 14.1659 117.447 14.3346C118.014 14.5034 118.512 14.7294 118.927 15.0059L119.064 15.0973V12.1089L119.011 12.0868C118.628 11.926 118.123 11.7885 117.509 11.6768C116.897 11.5663 116.343 11.5103 115.861 11.5103ZM101.757 23.2384C100.544 23.2384 99.5864 22.8445 98.912 22.0688C98.2332 21.2891 97.8899 20.1779 97.8899 18.7652C97.8899 17.3082 98.2336 16.1678 98.9128 15.3743C99.5871 14.5861 100.535 14.1861 101.731 14.1861C102.89 14.1861 103.813 14.5681 104.475 15.3223C105.139 16.0803 105.476 17.2116 105.476 18.6857C105.476 20.1779 105.159 21.3241 104.534 22.0907C103.913 22.8518 102.979 23.2384 101.757 23.2384ZM101.907 11.5103C99.5901 11.5103 97.7504 12.1742 96.4395 13.4837C95.1288 14.7934 94.4637 16.6057 94.4637 18.8709C94.4637 21.0232 95.1128 22.7528 96.3924 24.0136C97.6721 25.2748 99.4133 25.9137 101.568 25.9137C103.813 25.9137 105.616 25.2406 106.927 23.913C108.238 22.5866 108.902 20.7916 108.902 18.5793C108.902 16.3942 108.279 14.6508 107.049 13.3984C105.818 12.1454 104.088 11.5103 101.907 11.5103ZM89.3864 14.221V11.8414H86.0825V25.5822H89.3864V18.5533C89.3864 17.358 89.6634 16.3762 90.2099 15.6345C90.7496 14.9017 91.4688 14.5304 92.3468 14.5304C92.6443 14.5304 92.9783 14.5784 93.3401 14.6734C93.6983 14.7678 93.9576 14.8702 94.1107 14.978L94.2494 15.0764V11.8178L94.1959 11.7954C93.8882 11.6674 93.453 11.6029 92.9022 11.6029C92.072 11.6029 91.3289 11.8639 90.6925 12.3777C90.134 12.8294 89.7301 13.4487 89.4215 14.221H89.3864ZM80.1658 11.5103C78.6502 11.5103 77.2981 11.8283 76.148 12.4551C74.9956 13.0833 74.1045 13.9803 73.4982 15.1209C72.8946 16.2587 72.5881 17.5878 72.5881 19.0698C72.5881 20.3681 72.8853 21.5596 73.4726 22.6096C74.0602 23.6613 74.8921 24.4842 75.9449 25.0549C76.9963 25.6249 78.2114 25.914 79.5568 25.914C81.1269 25.914 82.4675 25.6068 83.5424 25.0013L83.5858 24.9768V22.0156L83.447 22.1148C82.9601 22.4617 82.416 22.7386 81.8306 22.9382C81.2466 23.1375 80.7142 23.2383 80.2475 23.2383C78.951 23.2383 77.9104 22.8414 77.1549 22.0591C76.3977 21.2756 76.0139 20.1756 76.0139 18.7913C76.0139 17.3982 76.4142 16.27 77.2032 15.4373C77.9897 14.6072 79.0323 14.1862 80.302 14.1862C81.388 14.1862 82.4462 14.5459 83.4474 15.2564L83.5858 15.3548V12.2347L83.5411 12.21C83.1643 12.0038 82.6505 11.8334 82.0125 11.7042C81.3774 11.5753 80.7562 11.5103 80.1658 11.5103ZM70.3126 11.8414H67.0086V25.5822H70.3126V11.8414ZM68.6944 5.98774C68.1506 5.98774 67.6763 6.16881 67.2867 6.52767C66.8954 6.88763 66.6968 7.34074 66.6968 7.87542C66.6968 8.40175 66.893 8.84653 67.2804 9.19688C67.6654 9.54614 68.1412 9.72322 68.6944 9.72322C69.2474 9.72322 69.725 9.54614 70.1146 9.19742C70.5068 8.84653 70.7056 8.40175 70.7056 7.87542C70.7056 7.35941 70.5122 6.91083 70.1307 6.54217C69.7498 6.17425 69.2665 5.98774 68.6944 5.98774ZM60.4509 10.8277V25.5821H63.8227V6.40852H59.1561L53.2243 20.6501L47.468 6.40852H42.6113V25.5821H45.7799V10.8262H45.8888L51.9673 25.5821H54.3585L60.3421 10.8277H60.4509Z" fill="#202020"/>
<path d="M15.646 15.2054H0.103516V0H15.646V15.2054Z" fill="#202020"/>
<path d="M32.806 15.2054H17.2637V0H32.806V15.2054Z" fill="#202020"/>
<path d="M15.6456 31.9984H0.103516V16.793H15.6456V31.9984Z" fill="#202020"/>
<path d="M32.806 31.9984H17.2637V16.793H32.806V31.9984Z" fill="#202020"/>
</g>
<defs>
<clipPath id="clip0_3056_3175">
<rect width="153.212" height="32" fill="white" transform="translate(0.103516)"/>
</clipPath>
</defs>
</svg>
