<svg width="61" height="20" viewBox="0 0 61 20" fill="none" xmlns="http://www.w3.org/2000/svg">
<path d="M14.9924 7.06443H7.8778V9.17683H12.9239C12.6739 12.1336 10.2116 13.4028 7.88632 13.4028C7.14967 13.406 6.41975 13.2624 5.73918 12.9802C5.05861 12.6981 4.44103 12.2831 3.9225 11.7596C3.40396 11.236 2.99485 10.6143 2.71907 9.93081C2.44328 9.2473 2.30633 8.51566 2.31623 7.77861C2.31623 4.58074 4.79044 2.11865 7.89314 2.11865C10.2867 2.11865 11.6971 3.64537 11.6971 3.64537L13.1746 2.11353C13.1746 2.11353 11.2766 0 7.81585 0C3.40899 0 0 3.72156 0 7.74108C0 11.6799 3.20669 15.5208 7.92723 15.5208C12.0795 15.5208 15.1191 12.6744 15.1191 8.46549C15.1191 7.57732 14.9901 7.06443 14.9901 7.06443H14.9924Z" fill="#202020"/>
<path d="M20.8226 5.53377C17.9029 5.53377 15.8105 7.81789 15.8105 10.4807C15.8105 13.1839 17.8392 15.5101 20.8567 15.5101C23.5878 15.5101 25.825 13.4216 25.825 10.5387C25.825 7.24074 23.2224 5.5332 20.8226 5.5332V5.53377ZM20.851 7.49321C22.2864 7.49321 23.6469 8.65488 23.6469 10.5262C23.6469 12.3571 22.2921 13.5523 20.8442 13.5523C19.2531 13.5523 18.0029 12.2775 18.0029 10.5114C18.0029 8.78282 19.2417 7.49321 20.8556 7.49321H20.851Z" fill="#202020"/>
<path d="M31.721 5.53377C28.8013 5.53377 26.709 7.81789 26.709 10.4807C26.709 13.1839 28.7377 15.5101 31.7551 15.5101C34.4862 15.5101 36.7234 13.4216 36.7234 10.5387C36.7234 7.24074 34.1208 5.5332 31.721 5.5332V5.53377ZM31.7495 7.49321C33.1849 7.49321 34.5453 8.65488 34.5453 10.5262C34.5453 12.3571 33.1906 13.5523 31.7426 13.5523C30.1515 13.5523 28.9013 12.2775 28.9013 10.5114C28.9013 8.78282 30.1401 7.49321 31.754 7.49321H31.7495Z" fill="#202020"/>
<path d="M42.4128 5.54102C39.7329 5.54102 37.627 7.88938 37.627 10.5255C37.627 13.5277 40.0688 15.519 42.3662 15.519C43.7869 15.519 44.5427 14.9544 45.0939 14.3067V15.2904C45.0939 17.0116 44.0494 18.0425 42.4731 18.0425C40.9501 18.0425 40.1864 16.9093 39.9159 16.2667L37.9997 17.0628C38.6794 18.5014 40.0477 20.0008 42.489 20.0008C45.1598 20.0008 47.184 18.3217 47.184 14.7997V5.84067H45.1019V6.68563C44.4597 5.99193 43.58 5.54102 42.414 5.54102H42.4128ZM42.6061 7.49704C43.9199 7.49704 45.2689 8.61948 45.2689 10.5363C45.2689 12.4849 43.9221 13.5584 42.5771 13.5584C41.1485 13.5584 39.8193 12.3985 39.8193 10.5545C39.8193 8.63938 41.2002 7.49647 42.6061 7.49647V7.49704Z" fill="#202020"/>
<path d="M56.4899 5.52734C53.9623 5.52734 51.8398 7.54023 51.8398 10.5084C51.8398 13.6505 54.2055 15.5139 56.7269 15.5139C58.8363 15.5139 60.1364 14.3596 60.9036 13.3247L59.1801 12.1773C58.7328 12.871 57.985 13.5505 56.7377 13.5505C55.3363 13.5505 54.6919 12.7828 54.2925 12.038L60.9769 9.26312L60.6359 8.45001C59.9904 6.8579 58.4839 5.52734 56.4905 5.52734H56.4899ZM56.5769 7.44584C57.4878 7.44584 58.143 7.9303 58.4214 8.51142L53.9572 10.3782C53.764 8.93276 55.1335 7.44584 56.5712 7.44584H56.5769Z" fill="#202020"/>
<path d="M48.6465 15.2182H50.8422V0.515625H48.6465V15.2182Z" fill="#202020"/>
</svg>
