<svg width="81" height="32" viewBox="0 0 81 32" fill="none" xmlns="http://www.w3.org/2000/svg">
<g clip-path="url(#clip0_3056_3185)">
<path d="M0 0V2.18936H15.7551V0H0ZM17.9873 0V2.18936H40.439C40.439 2.18936 38.1457 0 35.1082 0H17.9873ZM44.8433 0V2.18936H58.4263L57.62 0H44.8433ZM68.1645 0L67.3582 2.18936H80.8179V0H68.1645ZM0 4.25778V6.44714H15.7551V4.25778H0ZM17.9873 4.26088V6.44714H43.0443C43.0443 6.44714 42.7516 4.76211 42.2412 4.26088H17.9873ZM44.8433 4.26088V6.44714H59.9154L59.1693 4.26088H44.8433ZM66.552 4.26088L65.8058 6.44714H80.8179V4.26088H66.552ZM4.52765 8.51555V10.708H11.3507V8.51555H4.52765ZM22.5149 8.51555V10.708H29.338V8.51555H22.5149ZM35.9746 8.51555V10.708H42.7976C42.7976 10.708 43.2308 9.55017 43.2308 8.51555H35.9746ZM49.371 8.51555V10.708H61.4679L60.6616 8.51555H49.371ZM65.066 8.51555L64.2565 10.708H76.4135V8.51555H65.066ZM4.52765 12.7764V14.9658H11.3507V12.7764H4.52765ZM22.5149 12.7764V14.9658H39.9426C39.9426 14.9658 41.4004 13.8424 41.8649 12.7764H22.5149ZM49.371 12.7764V14.9658H56.194V13.7471L56.6272 14.9658H69.1257L69.5904 13.7471V14.9658H76.4135V12.7764H63.6052L62.9254 14.6309L62.2425 12.7764H49.371ZM4.52765 17.0342V19.2236H11.3507V17.0342H4.52765ZM22.5149 17.0342V19.2236H41.8649C41.4003 18.1611 39.9426 17.0342 39.9426 17.0342H22.5149ZM49.371 17.0342V19.2236H56.194V17.0342H49.371ZM57.4335 17.0342L58.2587 19.2236H67.6301L68.4143 17.0342H57.4335ZM69.5904 17.0342V19.2236H76.4135V17.0342H69.5904ZM4.52765 21.292V23.4813H11.3507V21.292H4.52765ZM22.5149 21.292V23.4813H29.338V21.292H22.5149ZM35.9746 21.292V23.4813H43.2308C43.2308 22.4481 42.7976 21.292 42.7976 21.292H35.9746ZM49.371 21.292V23.4813H56.194V21.292H49.371ZM58.9827 21.292L59.7826 23.4813H66.0651L66.8713 21.292H58.9827ZM69.5904 21.292V23.4813H76.4135V21.292H69.5904ZM0.123308 25.5498V27.7422H15.8784V25.5498H0.123308ZM17.9873 25.5498V27.7422H42.2412C42.7516 27.2402 43.0443 25.5498 43.0443 25.5498H17.9873ZM44.9666 25.5498V27.7422H56.194V25.5498H44.9666ZM60.5351 25.5498L61.3572 27.7422H64.5537L65.3252 25.5498H60.5351ZM69.5904 25.5498V27.7422H80.9412V25.5498H69.5904ZM0.123308 29.8106V32H15.8784V29.8106H0.123308ZM17.9873 29.8106V31.9969H35.1082C38.1457 31.9969 40.439 29.8106 40.439 29.8106H17.9873ZM44.9666 29.8106V32H56.194V29.8106H44.9666ZM62.0939 29.8106L62.8843 31.9938L63.0203 31.9969L63.8234 29.8106H62.0939ZM69.5904 29.8106V32H80.9412V29.8106H69.5904Z" fill="#202020"/>
</g>
<defs>
<clipPath id="clip0_3056_3185">
<rect width="80.9412" height="32" fill="white"/>
</clipPath>
</defs>
</svg>
