<svg width="92" height="40" viewBox="0 0 92 40" fill="none" xmlns="http://www.w3.org/2000/svg">
<path fill-rule="evenodd" clip-rule="evenodd" d="M18.5951 6.44132C18.5951 3.12629 21.3016 0.442341 24.6444 0.442226C27.9689 0.442226 30.6668 3.09898 30.703 6.38651C32.0918 5.56858 33.714 5.09164 35.4525 5.09164C38.0873 5.09164 40.462 6.16724 42.1557 7.89718C44.1903 4.9777 47.5885 3.05992 51.4426 3.06001C55.6626 3.06001 59.3251 5.36529 61.2631 8.76646C62.0687 8.26146 63.0268 7.96365 64.059 7.96365C65.4482 7.96365 66.7024 8.4967 67.6518 9.36123C69.7422 7.89761 72.2942 7.03221 75.0552 7.03221C77.7814 7.03221 80.3073 7.87775 82.3933 9.31419C83.2905 8.37886 84.5534 7.79186 85.9601 7.79186C88.6863 7.79186 90.8899 9.97975 90.8899 12.6761C90.8899 14.7776 89.5486 16.5624 87.6759 17.2513C87.8458 18.0769 87.9329 18.9259 87.9329 19.7987C87.9329 26.847 82.1625 32.5652 75.0552 32.5652C72.3769 32.5652 69.8859 31.755 67.8216 30.366C66.0143 31.9743 63.6278 32.9605 61.0105 32.9605C60.5271 32.9605 60.0611 32.9135 59.5951 32.8509C58.9506 35.8489 56.2636 38.1028 53.0453 38.1028C50.4715 38.1028 48.2417 36.6634 47.1225 34.5541C46.1339 37.4735 43.3568 39.5781 40.0858 39.5781C36.8505 39.5781 34.1077 37.5245 33.086 34.6637C33.0628 34.6648 33.0395 34.6662 33.016 34.6676C32.9582 34.671 32.899 34.6745 32.8352 34.6745C29.2955 34.6745 26.1673 32.9605 24.2315 30.3302C22.0806 31.837 19.4554 32.7253 16.6151 32.7253C9.31097 32.7253 3.39605 26.863 3.39605 19.6269C3.39605 19.2199 3.41382 18.8206 3.44966 18.4253C2.1143 17.2163 1.27131 15.4825 1.27148 13.5454C1.27148 9.89774 4.25564 6.93423 7.93893 6.93423C9.08603 6.93423 10.1621 7.22083 11.1033 7.72194C12.779 6.95452 14.6434 6.52376 16.6149 6.52376C17.2869 6.52376 17.9501 6.57426 18.6042 6.67224C18.5955 6.59411 18.5951 6.51944 18.5951 6.44132ZM22.4493 6.79335C22.4493 5.26325 23.3808 4.46519 24.7966 4.46519C26.2129 4.46519 27.1453 5.26325 27.1453 6.79335V17.3801L32.3608 11.6392C32.845 11.1303 33.4543 10.7461 34.1624 10.7461C34.9241 10.7461 35.7398 11.2321 36.1339 11.9443C36.5106 11.22 37.2719 10.7461 38.1498 10.7461C39.4045 10.7461 40.2746 11.4471 40.5612 12.4998L43.59 23.3719H43.6532L46.5218 12.8209C46.8441 11.6392 47.4799 10.7461 48.769 10.7461C49.8795 10.7461 50.5284 11.29 50.8593 11.8498C51.1555 11.1298 51.7826 10.7461 52.7929 10.7461C54.1735 10.7461 54.9182 11.5131 54.9182 12.9457V13.6773H54.9791C55.75 11.7052 57.6531 10.7461 59.9351 10.7461C63.2884 10.7461 66.2803 12.8244 67.0903 17.1842C68.0005 13.2474 71.0577 10.7461 75.6739 10.7461C81.0784 10.7461 84.1705 14.5388 84.1705 18.3664C84.1705 19.963 83.6871 20.3743 82.1106 20.3743H71.4888C71.4888 22.8319 73.0914 24.6163 75.8351 24.6163C77.8809 24.6163 78.7446 23.8493 79.4739 23.2017C80.0067 22.7286 80.4678 22.3192 81.2657 22.3192C82.3936 22.3192 83.2037 23.2782 83.2037 24.1393C83.2037 26.9453 78.6571 28.2522 75.8351 28.2522C70.4915 28.2522 67.8481 25.3362 67.0598 22.0645C66.3543 25.4929 64.0854 28.2522 60.0614 28.2522C57.91 28.2522 56.2987 27.3916 55.4277 25.8926H55.3667V32.1113C55.3667 33.6419 54.4348 34.4356 53.0194 34.4356C51.604 34.4356 50.6721 33.6419 50.6721 32.1113V14.7615L45.3939 29.5911C44.2624 32.7808 42.9808 34.4356 40.0146 34.4356C37.9264 34.4356 37.0567 33.4183 37.0567 32.303C37.0567 31.0582 37.9617 30.4203 39.2164 30.4203H39.7006C40.3099 30.4203 40.9819 30.3892 41.3403 28.9527L36.447 15.1495C36.3887 14.9778 36.3345 14.8208 36.2846 14.676C36.1889 14.3983 36.1087 14.1656 36.0438 13.96C35.9633 14.0653 35.873 14.1618 35.7727 14.2692C35.7389 14.3054 35.704 14.3428 35.6679 14.3821L32.1992 17.9827L37.0833 24.4872C37.2444 24.7104 37.5671 25.2231 37.5671 25.9862C37.5671 27.168 36.6086 28.2522 35.3539 28.2522C34.189 28.2522 33.5797 27.6769 33.23 27.168L28.7849 20.9492L27.1453 22.3856V25.9236C27.1453 27.4542 26.2129 28.2522 24.7966 28.2522C23.3808 28.2522 22.4493 27.4542 22.4493 25.9236V24.2092C21.6066 26.9604 18.461 28.2522 15.4317 28.2522C11.193 28.2522 7.65244 26.3704 7.65244 24.0767C7.65244 23.0555 8.22599 22.131 9.54337 22.131C10.4249 22.131 10.96 22.6698 11.5663 23.2805C12.359 24.0788 13.2736 25 15.244 25C16.9198 25 17.9768 24.2645 17.9768 23.3097C17.9768 22.191 17.0473 21.9616 15.5261 21.586C15.4456 21.5661 15.3635 21.5458 15.2797 21.525L12.51 20.8555C9.77679 20.1865 7.65244 19.0704 7.65244 15.9433C7.65244 12.1511 11.4439 10.7461 14.697 10.7461C18.2637 10.7461 21.8749 12.1515 21.8749 14.2846C21.8749 15.3684 21.1315 16.327 19.9125 16.327C19.1036 16.327 18.6387 15.9127 18.1184 15.4491C17.4572 14.8599 16.7065 14.1909 15.0463 14.1909C13.4067 14.1909 12.3484 14.6368 12.3484 15.623C12.3484 16.7111 13.4058 16.9654 14.8577 17.2822L16.8209 17.728C19.0703 18.2408 21.6872 19.1217 22.4493 21.3372V6.79335ZM82.8614 11.6197V11.0793H85.2914V11.6197H84.403V14.0105H83.7498V11.6197H82.8614ZM85.6311 14.0105V11.0793H86.5457L87.2381 13.095H87.2468L87.9001 11.0793H88.8146V14.0105H88.2049V11.9322H88.1962L87.4689 14.0105H86.9768L86.2408 11.9516V14.0105H85.6311ZM79.7258 17.6969C79.4645 15.56 77.8619 13.9988 75.7671 13.9988C73.4154 13.9988 72.0001 15.4348 71.4906 17.6969H79.7258ZM62.6108 19.4502C62.6108 16.7107 61.3827 14.4136 58.8699 14.3821C56.1393 14.3471 55.1072 16.8048 55.1072 19.4502C55.1072 21.8418 56.013 24.6163 58.8699 24.6163C61.8661 24.5852 62.6108 21.6187 62.6108 19.4502Z" fill="#202020"/>
</svg>
