<svg width="154" height="40" viewBox="0 0 154 40" fill="none" xmlns="http://www.w3.org/2000/svg">
<path d="M67.1357 11.523C67.1357 10.0605 65.9501 8.875 64.4877 8.875C63.0254 8.875 61.8398 10.0605 61.8398 11.523C61.8398 12.9854 63.0254 14.1708 64.4877 14.1708C65.9501 14.1708 67.1357 12.9854 67.1357 11.523Z" fill="#202020"/>
<path d="M71.8688 15.2326H67.6168V29.0987H72.0312V21.4344C72.0312 19.7283 73.0063 18.5095 74.4687 18.5095C75.904 18.5095 76.6352 19.5116 76.6352 20.9741V29.0987H81.0496V20.0803C81.0496 16.993 79.2621 14.8264 76.229 14.8264C74.3061 14.8264 72.9791 15.6388 71.9499 17.1284H71.8688V15.2326Z" fill="#202020"/>
<path d="M66.6952 15.2326H62.2807V29.0987H66.6952V15.2326Z" fill="#202020"/>
<path d="M111.657 15.0161C111.826 15.0161 111.971 15.0211 112.097 15.0325V18.8797C109.573 18.6464 107.974 19.9838 107.974 22.8699V29.0987H103.56V15.2328H107.785V17.3993H107.866C108.841 15.7473 109.978 15.0161 111.657 15.0161Z" fill="#202020"/>
<path d="M133.76 20.3511C133.543 20.311 133.328 20.2738 133.119 20.2376C131.636 19.98 130.429 19.7705 130.429 18.9159C130.429 18.0492 131.268 17.643 132.352 17.643C133.57 17.643 134.41 18.0221 134.572 19.268H138.635C138.418 16.5327 136.306 14.8264 132.379 14.8264C129.102 14.8264 126.394 16.3431 126.394 19.268C126.394 22.5176 128.966 23.1677 131.377 23.574C131.569 23.608 131.76 23.6399 131.947 23.6712C133.551 23.9395 134.897 24.1647 134.897 25.2801C134.897 26.1739 134.058 26.6614 132.731 26.6614C131.399 26.6614 130.519 26.0981 130.249 24.9552H126.043C126.352 27.8057 128.854 29.532 132.758 29.532C136.387 29.532 139.068 27.9613 139.068 24.9282C139.068 21.3803 136.197 20.7574 133.76 20.3511Z" fill="#202020"/>
<path fill-rule="evenodd" clip-rule="evenodd" d="M116.074 23.303C116.345 25.1717 117.374 26.3361 119.188 26.3361C120.353 26.3361 121.111 25.8218 121.49 24.9552H125.796C125.498 26.2009 124.686 27.3925 123.467 28.232C122.303 29.0445 120.894 29.5049 119.134 29.5049C114.557 29.5049 111.741 26.3361 111.741 22.1386C111.741 17.9949 114.639 14.8264 118.863 14.8264C120.84 14.8264 122.411 15.4764 123.603 16.5597C125.255 18.0762 126.067 20.4866 126.04 23.303H116.074ZM121.572 20.6762C121.409 19.024 120.38 17.9678 118.945 17.9678C117.266 17.9678 116.399 19.024 116.101 20.6762H121.572Z" fill="#202020"/>
<path d="M146.843 25.829L146.789 25.8312C146.591 25.8391 146.342 25.849 146.111 25.849C145.163 25.849 144.568 25.5781 144.568 24.4948V17.9951H146.843V15.2327H144.568V10.8454H140.261V15.2327H138.907V17.9951H140.261V25.4427C140.261 28.4218 142.103 29.2612 144.676 29.2612C145.658 29.2612 146.4 29.1877 146.843 29.1012V25.829Z" fill="#202020"/>
<path d="M88.3636 25.8488C88.5535 25.8488 88.7568 25.8419 88.9329 25.8351V29.1297C88.4804 29.2031 87.7988 29.261 86.9283 29.261C84.3555 29.261 82.5139 28.4216 82.5139 25.4424V17.9948H81.078V15.2325H82.5139V10.8452H86.82V15.2325H88.9329V17.9948H86.82V24.4946C86.82 25.5778 87.4159 25.8488 88.3636 25.8488Z" fill="#202020"/>
<path fill-rule="evenodd" clip-rule="evenodd" d="M88.7175 22.1386C88.7175 17.995 91.6152 14.8265 95.8401 14.8265C97.817 14.8265 99.3879 15.4764 100.579 16.5597C102.232 18.0763 103.044 20.4866 103.017 23.3031H93.0507C93.3214 25.1717 94.3505 26.3363 96.1651 26.3363C97.3295 26.3363 98.0879 25.8218 98.4669 24.9552H102.773C102.475 26.2009 101.663 27.3925 100.444 28.2322C99.2795 29.0445 97.8713 29.5049 96.1109 29.5049C91.5339 29.5049 88.7175 26.3363 88.7175 22.1386ZM98.5483 20.6762C98.3859 19.0242 97.3566 17.9678 95.9213 17.9678C94.2422 17.9678 93.3756 19.0242 93.0776 20.6762H98.5483Z" fill="#202020"/>
<path fill-rule="evenodd" clip-rule="evenodd" d="M54.4256 9.73499H46.7598V29.0987H51.2289V22.6261H55.1025C59.0837 22.6261 61.6565 19.9991 61.6565 16.2888C61.6565 14.339 60.9524 12.6868 59.7065 11.5224C58.5149 10.3849 56.7816 9.73499 54.4256 9.73499ZM57.3226 16.2616C57.3226 17.8055 56.3477 18.8346 54.6144 18.8346H51.2289V13.7702H54.6144C56.3205 13.7702 57.3226 14.7181 57.3226 16.2616Z" fill="#202020"/>
<path d="M40.7005 19.9974C40.7005 29.2021 33.2386 36.6641 24.0339 36.6641C14.8292 36.6641 7.36719 29.2021 7.36719 19.9974C7.36719 10.7926 14.8292 3.33073 24.0339 3.33073C33.2386 3.33073 40.7005 10.7926 40.7005 19.9974Z" fill="#FCFAF2"/>
<path d="M24.0339 3.33073C14.8292 3.33073 7.36719 10.7927 7.36719 19.9974C7.36719 27.0582 11.7602 33.0943 17.9601 35.5227C17.8145 34.2041 17.6828 32.1761 18.0179 30.7365C18.3208 29.4357 19.9722 22.4521 19.9722 22.4521C19.9722 22.4521 19.4737 21.4536 19.4737 19.9776C19.4737 17.6601 20.817 15.9299 22.4895 15.9299C23.9114 15.9299 24.5982 16.9975 24.5982 18.2776C24.5982 19.7076 23.6878 21.8456 23.218 23.8269C22.8253 25.4857 24.0498 26.8386 25.686 26.8386C28.6482 26.8386 30.9253 23.7151 30.9253 19.2065C30.9253 15.2159 28.0579 12.4259 23.9635 12.4259C19.2212 12.4259 16.4377 15.9828 16.4377 19.6587C16.4377 21.0912 16.9895 22.6272 17.6781 23.4622C17.8143 23.6273 17.8343 23.7718 17.7937 23.9403C17.6672 24.4667 17.386 25.5987 17.3308 25.8304C17.2581 26.1355 17.0893 26.2003 16.7734 26.0533C14.6918 25.0843 13.3904 22.041 13.3904 19.5965C13.3904 14.3391 17.2103 9.51078 24.4027 9.51078C30.1844 9.51078 34.6774 13.6307 34.6774 19.1367C34.6774 24.8806 31.0558 29.5033 26.0289 29.5033C24.34 29.5033 22.7523 28.626 22.2089 27.5896C22.2089 27.5896 21.3732 30.7717 21.1706 31.5516C20.7943 32.9992 19.7785 34.8138 19.0991 35.9208C20.6585 36.4037 22.3157 36.6641 24.0339 36.6641C33.2387 36.6641 40.7007 29.2021 40.7007 19.9974C40.7007 10.7927 33.2387 3.33073 24.0339 3.33073Z" fill="#202020"/>
</svg>
