<svg width="68" height="22" viewBox="0 0 68 22" fill="none" xmlns="http://www.w3.org/2000/svg">
<path d="M17.1539 7.77097H9.33612V10.0946H14.881C14.6063 13.3471 11.9006 14.7432 9.34548 14.7432C8.53602 14.7468 7.73396 14.5888 6.98613 14.2784C6.23829 13.9681 5.55967 13.5116 4.98988 12.9357C4.42009 12.3597 3.97055 11.6759 3.6675 10.924C3.36446 10.1721 3.21398 9.36733 3.22485 8.55657C3.22485 5.03887 5.94361 2.33054 9.35298 2.33054C11.9831 2.33054 13.5329 4.00995 13.5329 4.00995L15.1564 2.32491C15.1564 2.32491 13.0708 0 9.26806 0C4.42562 0 0.679688 4.09377 0.679688 8.51529C0.679688 12.848 4.20333 17.0731 9.39044 17.0731C13.9531 17.0731 17.2932 13.942 17.2932 9.31215C17.2932 8.33515 17.1514 7.77097 17.1514 7.77097H17.1539Z" fill="#202020"/>
<path d="M23.5602 6.08852C20.3519 6.08852 18.0527 8.60107 18.0527 11.5302C18.0527 14.5037 20.2819 17.0626 23.5976 17.0626C26.5986 17.0626 29.057 14.7652 29.057 11.594C29.057 7.96621 26.1971 6.08789 23.5602 6.08789V6.08852ZM23.5914 8.24392C25.1687 8.24392 26.6636 9.52178 26.6636 11.5802C26.6636 13.5943 25.1749 14.909 23.5839 14.909C21.8355 14.909 20.4618 13.5067 20.4618 11.564C20.4618 9.66251 21.823 8.24392 23.5964 8.24392H23.5914Z" fill="#202020"/>
<path d="M35.5367 6.08852C32.3284 6.08852 30.0293 8.60107 30.0293 11.5302C30.0293 14.5037 32.2585 17.0626 35.5742 17.0626C38.5752 17.0626 41.0336 14.7652 41.0336 11.594C41.0336 7.96621 38.1737 6.08789 35.5367 6.08789V6.08852ZM35.568 8.24392C37.1453 8.24392 38.6401 9.52178 38.6401 11.5802C38.6401 13.5943 37.1515 14.909 35.5605 14.909C33.8121 14.909 32.4383 13.5067 32.4383 11.564C32.4383 9.66251 33.7996 8.24392 35.573 8.24392H35.568Z" fill="#202020"/>
<path d="M47.2843 6.09375C44.3395 6.09375 42.0254 8.67698 42.0254 11.5767C42.0254 14.8792 44.7086 17.0697 47.2331 17.0697C48.7942 17.0697 49.6247 16.4486 50.2304 15.7362V16.8182C50.2304 18.7116 49.0827 19.8456 47.3505 19.8456C45.677 19.8456 44.8378 18.599 44.5406 17.8922L42.435 18.7679C43.1818 20.3503 44.6854 21.9997 47.368 21.9997C50.3028 21.9997 52.527 20.1527 52.527 16.2784V6.42338H50.2391V7.35284C49.5335 6.58976 48.5669 6.09375 47.2856 6.09375H47.2843ZM47.4966 8.2454C48.9403 8.2454 50.4227 9.4801 50.4227 11.5886C50.4227 13.7321 48.9428 14.913 47.4648 14.913C45.895 14.913 44.4344 13.637 44.4344 11.6086C44.4344 9.50199 45.9518 8.24478 47.4966 8.24478V8.2454Z" fill="#202020"/>
<path d="M62.7503 6.08105C59.9729 6.08105 57.6406 8.29526 57.6406 11.5603C57.6406 15.0167 60.2401 17.0664 63.0107 17.0664C65.3286 17.0664 66.7573 15.7966 67.6002 14.6583L65.7063 13.396C65.2149 14.1591 64.3932 14.9066 63.0226 14.9066C61.4827 14.9066 60.7746 14.0622 60.3356 13.2428L67.6808 10.1905L67.3061 9.29602C66.5968 7.54468 64.9414 6.08105 62.7509 6.08105H62.7503ZM62.8458 8.19143C63.8468 8.19143 64.5668 8.72434 64.8727 9.36358L59.9672 11.417C59.7549 9.82706 61.2598 8.19143 62.8396 8.19143H62.8458Z" fill="#202020"/>
<path d="M54.1348 16.7424H56.5476V0.569336H54.1348V16.7424Z" fill="#202020"/>
</svg>
