<svg width="81" height="16" viewBox="0 0 81 16" fill="none" xmlns="http://www.w3.org/2000/svg">
<g clip-path="url(#clip0_11328_6042)">
<path d="M80.2749 7.23774V5.91972H78.5278V3.87065L78.469 3.8876L76.8279 4.35793L76.7956 4.36717V5.91972H74.2055V5.05491C74.2055 4.65218 74.3017 4.34397 74.4911 4.13844C74.6792 3.93535 74.9484 3.83213 75.2915 3.83213C75.5383 3.83213 75.7937 3.8866 76.0508 3.99399L76.1152 4.0209V2.63283L76.0849 2.62241C75.8451 2.54167 75.5188 2.50098 75.1146 2.50098C74.6049 2.50098 74.1419 2.60483 73.7381 2.81073C73.334 3.01689 73.0162 3.31123 72.7936 3.68551C72.5717 4.05933 72.4591 4.49105 72.4591 4.96882V5.91972H71.2425V7.23774H72.4591V12.7903H74.2055V7.23774H76.7956V10.7663C76.7956 12.2195 77.5273 12.956 78.9703 12.956C79.2075 12.956 79.457 12.9299 79.7119 12.8789C79.9713 12.8266 80.1479 12.7743 80.2519 12.7185L80.2749 12.7058V11.3756L80.2039 11.4196C80.1091 11.4789 79.9911 11.5272 79.8527 11.5631C79.7137 11.5997 79.5976 11.6181 79.5077 11.6181C79.1696 11.6181 78.9196 11.5327 78.7643 11.3643C78.6074 11.1944 78.5278 10.8972 78.5278 10.4815V7.23774H80.2749ZM67.3424 11.6182C66.7085 11.6182 66.2087 11.4213 65.8565 11.0334C65.5022 10.6436 65.3226 10.0878 65.3226 9.38164C65.3226 8.65312 65.5022 8.08292 65.8567 7.68618C66.2091 7.29206 66.7041 7.09205 67.3282 7.09205C67.9337 7.09205 68.4158 7.28309 68.761 7.66017C69.1081 8.03915 69.2842 8.60482 69.2842 9.34186C69.2842 10.088 69.1185 10.6611 68.792 11.0444C68.4677 11.4249 67.9801 11.6182 67.3424 11.6182ZM67.4202 5.75419C66.2108 5.75419 65.2502 6.08614 64.5654 6.74089C63.881 7.39573 63.5339 8.30187 63.5339 9.43447C63.5339 10.5102 63.8727 11.3754 64.5408 12.0058C65.209 12.6364 66.1183 12.9559 67.2432 12.9559C68.4156 12.9559 69.357 12.6193 70.0416 11.9555C70.7261 11.2923 71.0729 10.3948 71.0729 9.28866C71.0729 8.19611 70.7475 7.32441 70.1053 6.69821C69.4629 6.07173 68.5593 5.75419 67.4202 5.75419ZM60.7181 5.75415C59.8954 5.75415 59.215 5.95126 58.6951 6.33994C58.1722 6.73089 57.9069 7.24372 57.9069 7.86422C57.9069 8.18674 57.9642 8.47329 58.0769 8.71625C58.1903 8.96012 58.3658 9.17471 58.5988 9.35487C58.8302 9.53358 59.1871 9.7208 59.6604 9.9112C60.058 10.0645 60.3547 10.1943 60.5432 10.2965C60.7274 10.3967 60.8581 10.4974 60.932 10.5955C61.0036 10.6915 61.0401 10.8228 61.0401 10.985C61.0401 11.4465 60.6712 11.6711 59.9119 11.6711C59.6303 11.6711 59.309 11.6161 58.9571 11.5074C58.605 11.399 58.276 11.243 57.9794 11.043L57.9069 10.9943V12.5694L57.9335 12.581C58.1807 12.6879 58.4922 12.778 58.8594 12.8489C59.2259 12.9199 59.5589 12.956 59.8482 12.956C60.7409 12.956 61.4597 12.7579 61.9842 12.367C62.5121 11.9733 62.7797 11.4484 62.7797 10.8064C62.7797 10.3433 62.6357 9.94609 62.3517 9.62583C62.0699 9.30811 61.5806 9.01648 60.898 8.75866C60.3543 8.55422 60.0059 8.38448 59.8623 8.25426C59.7237 8.12838 59.6534 7.9504 59.6534 7.72502C59.6534 7.5252 59.7402 7.36516 59.9185 7.23547C60.0981 7.10516 60.3481 7.03891 60.6617 7.03891C60.9527 7.03891 61.2504 7.08196 61.5464 7.16633C61.8423 7.2507 62.1022 7.36371 62.3191 7.502L62.3904 7.54767V6.05348L62.3631 6.04242C62.1629 5.96204 61.899 5.89326 61.5785 5.83744C61.2593 5.78216 60.9698 5.75415 60.7181 5.75415ZM53.354 11.6182C52.7203 11.6182 52.2203 11.4213 51.8682 11.0334C51.5138 10.6436 51.3345 10.088 51.3345 9.38164C51.3345 8.65312 51.514 8.08292 51.8686 7.68618C52.2207 7.29206 52.7156 7.09205 53.34 7.09205C53.9453 7.09205 54.4274 7.28309 54.7727 7.66017C55.1198 8.03915 55.2959 8.60482 55.2959 9.34186C55.2959 10.088 55.1301 10.6611 54.8036 11.0444C54.4793 11.4249 53.9919 11.6182 53.354 11.6182ZM53.4319 5.75419C52.2223 5.75419 51.2617 6.08614 50.5772 6.74089C49.8928 7.39573 49.5455 8.30187 49.5455 9.43447C49.5455 10.5106 49.8845 11.3754 50.5526 12.0058C51.2208 12.6364 52.13 12.9559 53.255 12.9559C54.4271 12.9559 55.3688 12.6193 56.0534 11.9555C56.7377 11.2923 57.0847 10.3948 57.0847 9.28866C57.0847 8.19611 56.7592 7.32441 56.1169 6.69821C55.4743 6.07173 54.5709 5.75419 53.4319 5.75419ZM46.8944 7.10951V5.91972H45.1692V12.7901H46.8944V9.27567C46.8944 8.67801 47.039 8.1871 47.3244 7.81628C47.6062 7.44989 47.9817 7.2642 48.4402 7.2642C48.5955 7.2642 48.7699 7.28822 48.9589 7.3357C49.1458 7.38292 49.2813 7.43412 49.3612 7.48804L49.4336 7.53725V5.90794L49.4057 5.8967C49.245 5.83272 49.0178 5.80046 48.7302 5.80046C48.2967 5.80046 47.9087 5.93096 47.5764 6.18787C47.2847 6.41371 47.0739 6.72336 46.9127 7.10951H46.8944ZM42.0798 5.75415C41.2884 5.75415 40.5825 5.9132 39.9819 6.22657C39.3802 6.54067 38.9149 6.98916 38.5983 7.55945C38.2832 8.12838 38.1232 8.79292 38.1232 9.53394C38.1232 10.1831 38.2783 10.7788 38.585 11.3038C38.8918 11.8297 39.3262 12.2411 39.8759 12.5265C40.4249 12.8115 41.0594 12.956 41.7619 12.956C42.5817 12.956 43.2817 12.8024 43.8429 12.4997L43.8656 12.4874V11.0068L43.7931 11.0564C43.5389 11.2299 43.2548 11.3683 42.9491 11.4681C42.6442 11.5678 42.3662 11.6182 42.1225 11.6182C41.4455 11.6182 40.9022 11.4197 40.5077 11.0286C40.1123 10.6368 39.9119 10.0868 39.9119 9.39465C39.9119 8.69813 40.1209 8.134 40.5329 7.71768C40.9436 7.30263 41.488 7.09211 42.1509 7.09211C42.718 7.09211 43.2706 7.272 43.7933 7.62724L43.8656 7.67644V6.11637L43.8423 6.10405C43.6455 6.00092 43.3773 5.91573 43.0441 5.85112C42.7125 5.78669 42.3881 5.75415 42.0798 5.75415ZM36.935 5.91974H35.2098V12.7901H36.935V5.91974ZM36.09 2.9929C35.8061 2.9929 35.5584 3.08343 35.355 3.26286C35.1507 3.44284 35.047 3.66939 35.047 3.93673C35.047 4.1999 35.1494 4.42229 35.3517 4.59746C35.5527 4.77209 35.8012 4.86063 36.09 4.86063C36.3788 4.86063 36.6281 4.77209 36.8316 4.59773C37.0364 4.42229 37.1402 4.1999 37.1402 3.93673C37.1402 3.67873 37.0392 3.45444 36.84 3.27011C36.6411 3.08615 36.3887 2.9929 36.09 2.9929ZM31.7857 5.41285V12.7901H33.5463V3.20328H31.1096L28.0123 10.3241L25.0066 3.20328H22.4707V12.7901H24.1252V5.41213H24.1821L27.3559 12.7901H28.6045L31.7289 5.41285H31.7857Z" fill="#202020"/>
<path d="M8.39093 7.60271H0.275391V0H8.39093V7.60271Z" fill="#202020"/>
<path d="M17.3518 7.60271H9.23633V0H17.3518V7.60271Z" fill="#202020"/>
<path d="M8.39073 16.0002H0.275391V8.39746H8.39073V16.0002Z" fill="#202020"/>
<path d="M17.3518 16.0002H9.23633V8.39746H17.3518V16.0002Z" fill="#202020"/>
</g>
<defs>
<clipPath id="clip0_11328_6042">
<rect width="80" height="16" fill="white" transform="translate(0.275391)"/>
</clipPath>
</defs>
</svg>
