<svg width="83" height="12" viewBox="0 0 83 12" fill="none" xmlns="http://www.w3.org/2000/svg">
<path fill-rule="evenodd" clip-rule="evenodd" d="M59.2322 0.632076H57.5536V11.4991H65.4403L66.5088 9.72367H59.2322V0.632076ZM36.2116 1.17012L30.0553 11.4995H32.0907L33.9478 8.37926H37.9166L38.9597 6.60431H34.9909L37.1535 3.02662L42.2163 11.5H44.2513L38.0437 1.14278C37.6619 0.470341 36.6442 0.47034 36.2116 1.17012ZM48.1429 2.40424H55.2025L56.2435 0.630223L48.0912 0.635322C45.255 0.635322 43.3883 3.06648 43.3883 6.06534C43.3883 9.06513 45.2554 11.4963 48.0912 11.4963L54.9873 11.4875L56.0669 9.72691H48.1425C46.2302 9.72691 45.1121 8.08776 45.1121 6.06534C45.1125 4.04339 46.2306 2.40424 48.1429 2.40424ZM12.1162 0.635322H4.84008C2.00386 0.635322 0.136719 3.06648 0.136719 6.06581C0.136719 9.06514 2.00386 11.4963 4.84008 11.4963H12.1162C14.9525 11.4963 16.8196 9.06514 16.8196 6.06581C16.8196 3.06648 14.9525 0.635322 12.1162 0.635322ZM12.1162 9.72691H4.84008C2.92779 9.72691 1.8097 8.08776 1.8097 6.06581C1.8097 4.04386 2.92779 2.40424 4.84008 2.40424H12.1162C14.0285 2.40424 15.1466 4.04386 15.1466 6.06581C15.1466 8.08776 14.0285 9.72691 12.1162 9.72691ZM71.3077 2.40424H78.3674L79.4092 0.630223L71.2569 0.635322C68.4198 0.635322 66.5531 3.06648 66.5531 6.06534C66.5531 9.06513 68.4202 11.4963 71.2569 11.4963L78.1522 11.4875L79.2317 9.72691H71.3073C69.6747 9.72691 68.6297 8.53358 68.3567 6.9264H77.2475L78.3161 5.15099H68.3567C68.6477 3.57764 69.6983 2.40424 71.3077 2.40424ZM26.388 7.08397C27.1968 7.08397 27.9723 6.74429 28.5442 6.13965C29.116 5.53502 29.4373 4.71496 29.4373 3.85988C29.4373 3.00479 29.116 2.18473 28.5442 1.5801C27.9723 0.975465 27.1968 0.635785 26.388 0.635785L17.8272 0.632076V11.4991H19.7097V2.4047H26.388C26.7531 2.4047 27.1031 2.55801 27.3612 2.83091C27.6193 3.10381 27.7643 3.47394 27.7643 3.85988C27.7643 4.24581 27.6193 4.61594 27.3612 4.88884C27.1031 5.16174 26.7531 5.31505 26.388 5.31505H21.0329L27.074 11.487H29.5043L25.1797 7.08813L26.388 7.08397ZM81.2097 0.5C80.7048 0.5 80.2784 0.910599 80.2784 1.46718C80.2784 2.02886 80.7048 2.43992 81.2097 2.43992C81.7098 2.43992 82.1367 2.02932 82.1367 1.46718C82.1367 0.910136 81.7094 0.5 81.2097 0.5ZM81.2097 2.27772C80.7903 2.27772 80.4624 1.93386 80.4624 1.46672C80.4624 1.00746 80.7903 0.661274 81.2097 0.661274C81.6248 0.661274 81.9518 1.00792 81.9518 1.46672C81.9518 1.93386 81.6248 2.27772 81.2097 2.27772Z" fill="#202020"/>
</svg>
