<svg width="65" height="33" viewBox="0 0 65 33" fill="none" xmlns="http://www.w3.org/2000/svg">
<g clip-path="url(#clip0_8918_3267)">
<path d="M13.8007 21.2538C13.8007 23.0934 14.1914 24.5056 14.7024 25.36C15.3723 26.4792 16.3712 26.9543 17.3897 26.9543C18.7032 26.9543 19.9049 26.6175 22.2207 23.3086C24.0764 20.6565 26.2621 16.9339 27.733 14.6001L30.224 10.6463C31.9544 7.90044 33.9572 4.84803 36.2536 2.77899C38.1289 1.09014 40.1507 0.151978 42.1859 0.151978C45.603 0.151978 48.8578 2.19761 51.3488 6.0342C54.075 10.2359 55.3982 15.5284 55.3982 20.9899C55.3982 24.2368 54.7788 26.6225 53.7245 28.5073C52.7062 30.3299 50.7212 32.1512 47.382 32.1512V26.9534C50.2412 26.9534 50.9546 24.2393 50.9546 21.1332C50.9546 16.7069 49.9556 11.7949 47.7549 8.28506C46.1933 5.79548 44.1694 4.27432 41.9427 4.27432C39.5344 4.27432 37.5964 6.15104 35.4183 9.49626C34.2604 11.2739 33.0717 13.44 31.7369 15.8844L30.2676 18.5734C27.3164 23.9806 26.5686 25.2115 25.0928 27.2432C22.5063 30.8013 20.2974 32.1504 17.3897 32.1504C13.9402 32.1504 11.759 30.6072 10.4081 28.2819C9.30535 26.3872 8.76367 23.9008 8.76367 21.068L13.8007 21.2538Z" fill="#202020"/>
<path d="M12.7344 6.40034C15.0437 2.72297 18.3764 0.151245 22.1988 0.151245C24.4124 0.151245 26.6135 0.828078 28.9111 2.76655C31.4248 4.88544 34.1039 8.37655 37.4464 14.1278L38.6448 16.1912C41.538 21.1704 43.1839 23.732 44.1474 24.94C45.3862 26.4912 46.2539 26.9537 47.381 26.9537C50.2402 26.9537 50.9536 24.2395 50.9536 21.1335L55.3972 20.9894C55.3972 24.2363 54.7778 26.622 53.7236 28.5068C52.7052 30.3294 50.7202 32.1506 47.381 32.1506C45.3051 32.1506 43.4662 31.6849 41.4325 29.7028C39.8698 28.1817 38.0414 25.4794 36.6353 23.0501L32.4529 15.8328C30.3545 12.2107 28.4289 9.51006 27.3154 8.28696C26.1168 6.97163 24.5761 5.38348 22.1176 5.38348C20.1278 5.38348 18.4379 6.82593 17.0239 9.0324L12.7344 6.40034Z" fill="#202020"/>
<path d="M22.1185 5.38348C20.1288 5.38348 18.4389 6.82593 17.0248 9.0324C15.0251 12.1502 13.8017 16.7942 13.8017 21.2539C13.8017 23.0935 14.1924 24.5057 14.7034 25.3601L10.4081 28.282C9.30535 26.3873 8.76367 23.9009 8.76367 21.0681C8.76367 15.9164 10.1324 10.5469 12.7353 6.40034C15.0447 2.72297 18.3774 0.151245 22.1998 0.151245L22.1185 5.38348Z" fill="#202020"/>
</g>
<defs>
<clipPath id="clip0_8918_3267">
<rect width="64" height="32" fill="white" transform="translate(0.0800781 0.151245)"/>
</clipPath>
</defs>
</svg>
