<svg width="45" height="22" viewBox="0 0 45 22" fill="none" xmlns="http://www.w3.org/2000/svg">
<path d="M9.49032 14.5075C9.49032 15.7723 9.75892 16.7431 10.1102 17.3305C10.5707 18.1 11.2575 18.4266 11.9578 18.4266C12.8608 18.4266 13.687 18.195 15.2791 15.9202C16.5549 14.0969 18.0575 11.5376 19.0688 9.93312L20.7813 7.21485C21.9709 5.32707 23.3479 3.22854 24.9267 1.80607C26.2159 0.644986 27.6059 0 29.0051 0C31.3544 0 33.5921 1.40637 35.3046 4.04403C37.1789 6.93266 38.0886 10.5713 38.0886 14.3261C38.0886 16.5583 37.6627 18.1985 36.9379 19.4943C36.2378 20.7474 34.8731 21.9994 32.5774 21.9994V18.426C34.5431 18.426 35.0336 16.56 35.0336 14.4246C35.0336 11.3815 34.3468 8.00454 32.8338 5.5915C31.7602 3.8799 30.3688 2.83411 28.8379 2.83411C27.1822 2.83411 25.8498 4.12436 24.3524 6.42419C23.5563 7.64632 22.7391 9.13552 21.8215 10.816L20.8113 12.6647C18.7823 16.3821 18.2682 17.2284 17.2536 18.6252C15.4754 21.0714 13.9568 21.9989 11.9578 21.9989C9.58621 21.9989 8.08665 20.938 7.15786 19.3393C6.39975 18.0367 6.02734 16.3273 6.02734 14.3798L9.49032 14.5075Z" fill="#FCFAF2"/>
<path d="M8.75781 4.29625C10.3455 1.76806 12.6367 0 15.2646 0C16.7865 0 18.2997 0.465322 19.8793 1.79803C21.6075 3.25476 23.4494 5.6549 25.7473 9.60889L26.5712 11.0275C28.5603 14.4507 29.6919 16.2118 30.3542 17.0423C31.2059 18.1087 31.8025 18.4267 32.5774 18.4267C34.5431 18.4267 35.0335 16.5607 35.0335 14.4253L38.0885 14.3262C38.0885 16.5585 37.6627 18.1986 36.9379 19.4944C36.2378 20.7475 34.8731 21.9996 32.5774 21.9996C31.1502 21.9996 29.8859 21.6794 28.4878 20.3167C27.4134 19.2709 26.1564 17.4131 25.1897 15.743L22.3143 10.7811C20.8717 8.29089 19.5478 6.43418 18.7823 5.5933C17.9582 4.68902 16.899 3.59716 15.2088 3.59716C13.8408 3.59716 12.679 4.58885 11.7068 6.10579L8.75781 4.29625Z" fill="#FCFAF2"/>
<path d="M15.2088 3.59716C13.8409 3.59716 12.6791 4.58885 11.7069 6.10579C10.3321 8.24927 9.491 11.442 9.491 14.5081C9.491 15.7728 9.75959 16.7437 10.1109 17.3311L7.15786 19.3399C6.39975 18.0373 6.02734 16.3279 6.02734 14.3803C6.02734 10.8385 6.96836 7.14701 8.75787 4.29625C10.3455 1.76806 12.6368 0 15.2647 0L15.2088 3.59716Z" fill="#FCFAF2"/>
</svg>
