<svg width="94" height="20" viewBox="0 0 94 20" fill="none" xmlns="http://www.w3.org/2000/svg">
<path fill-rule="evenodd" clip-rule="evenodd" d="M6.09578 9.58991C6.002 10 5.75192 10.7256 5.59562 11.0726C5.28301 11.735 4.40772 12.5552 3.46991 12.5552C2.34453 12.5552 1.90689 11.9874 1.90689 11.388C1.90689 10.9464 2.12571 10.6309 2.56335 10.6309C3.001 10.6309 3.09478 11.0095 3.09478 11.1356C3.09478 11.2934 3.03226 11.4827 2.96974 11.5457C2.90722 11.6088 2.90722 11.6719 2.90722 11.7666C2.90722 12.0189 3.18856 12.1451 3.43865 12.1451C4.06386 12.1451 4.40772 11.6404 4.62654 10.7886C4.78285 10.2208 5.00167 9.2429 5.43931 7.53943L5.37679 7.50789C5.22049 7.72871 4.5015 8.73817 2.8447 8.73817C1.15664 8.73817 0 7.53943 0 5.39432C0 3.81704 0.71899 2.46057 1.62554 1.5142C2.31327 0.820189 3.37613 0.0630915 5.06419 0.0630915C6.34587 0.0630915 6.97108 0.473186 7.22116 0.694006C7.43998 0.820189 7.53376 0.851735 7.59628 0.851735C7.75259 0.851735 7.81511 0.725552 7.87763 0.44164C7.87763 0.378549 7.94015 0.378549 8.00267 0.378549L8.19023 0.44164C8.25275 0.44164 8.28401 0.473186 8.25275 0.536278L7.56502 3.02839C7.53376 3.09148 7.5025 3.12303 7.43998 3.09148L7.25242 3.05994C7.1899 3.05994 7.15864 2.99685 7.15864 2.93375C7.37746 1.8612 6.75225 0.567823 5.18923 0.567823C4.40772 0.567823 3.53243 0.851735 2.65714 1.98738C1.93815 2.90221 1.53176 4.22713 1.53176 5.70978C1.53176 7.72871 2.78218 8.04416 3.31361 8.04416C4.78285 8.04416 5.50184 6.78233 5.5331 6.05678C5.56436 5.5836 5.43931 5.48896 5.09545 5.48896H4.6578C4.56402 5.48896 4.53276 5.45741 4.56402 5.36278L4.62654 5.07886C4.62654 5.01577 4.6578 4.98423 4.75158 4.98423C4.93915 4.98423 5.37679 5.01577 6.43965 5.01577C7.28368 5.01577 7.56502 4.98423 7.72133 4.98423C7.81511 4.98423 7.84637 5.01577 7.84637 5.07886V5.39432C7.84637 5.45741 7.81511 5.48896 7.72133 5.48896H7.47124C7.25242 5.48896 7.06486 5.5836 6.90855 6.24606L6.09578 9.58991ZM15.5052 6.30915C15.4426 6.24606 15.3801 6.2776 15.3489 6.34069C15.1613 6.56151 14.5048 7.41325 14.2235 7.63407C13.9109 7.91798 13.567 8.10726 13.1606 8.10726H10.4097L11.5976 4.35331H12.2228C13.0981 4.35331 13.567 4.4795 13.567 5.36278C13.567 5.42587 13.567 5.45741 13.6295 5.48896H13.8484C13.9109 5.48896 13.9109 5.48896 13.9421 5.42587C14.0047 4.95268 14.3798 3.43849 14.5674 2.9653C14.5986 2.93375 14.5674 2.90221 14.5048 2.90221L14.286 2.83912C14.2235 2.83912 14.2235 2.87066 14.1922 2.90221C13.7546 3.88013 13.2857 3.94322 12.7543 3.94322H11.6914L12.723 0.757098H14.6299C14.6924 0.757098 14.7862 0.788644 14.8487 0.851735L16.0991 2.30284C16.1616 2.36593 16.1929 2.39748 16.2554 2.36593L16.4117 2.30284C16.4742 2.23975 16.4742 2.23975 16.4742 2.17666L16.0991 0.536278C16.0679 0.283912 16.0679 0.22082 15.849 0.22082C15.724 0.22082 15.4114 0.22082 14.9425 0.252366C14.4423 0.252366 13.7858 0.252366 12.9106 0.252366H12.0353C11.7539 0.252366 11.3475 0.252366 10.9724 0.22082C10.6285 0.22082 10.3472 0.22082 10.2534 0.22082C10.1596 0.22082 10.1284 0.252366 10.0971 0.315457L10.0346 0.599369C10.0033 0.662461 10.0346 0.725552 10.0971 0.725552H10.5035C10.8786 0.725552 11.3163 0.883281 11.0975 1.57729L9.22183 7.4448C9.09678 7.85489 8.8467 8.10726 8.37779 8.10726H7.97141C7.90889 8.10726 7.90889 8.1388 7.87763 8.17035L7.81511 8.4858C7.81511 8.5489 7.81511 8.58044 7.87763 8.58044C7.94015 8.58044 8.15897 8.58044 8.40905 8.5489C8.6904 8.5489 9.03426 8.5489 9.40939 8.5489H11.0037C11.8477 8.5489 12.723 8.5489 13.4107 8.5489C14.0985 8.5489 14.5986 8.58044 14.6924 8.58044C14.8487 8.58044 14.9112 8.5489 14.9737 8.35962L15.599 6.56151C15.6302 6.46688 15.599 6.43533 15.5677 6.43533L15.5052 6.30915ZM25.0083 3.69085C25.0083 1.41956 23.6329 0.0946372 21.6947 0.0946372C19.0689 0.0946372 17.2245 2.49211 17.2245 5.07886C17.2245 6.18297 17.5371 7.19243 18.2873 7.91798C19.0376 8.64353 20.0067 8.73817 20.4756 8.73817C23.2578 8.73817 25.0083 6.15142 25.0083 3.69085ZM20.1942 1.57729C20.6319 1.07256 21.2258 0.662461 21.9448 0.662461C23.0389 0.662461 23.6641 1.48265 23.6641 2.71293C23.6329 5.39432 22.0386 8.1388 20.2568 8.1388C19.2564 8.1388 18.4437 7.41325 18.4437 5.89905C18.4749 4.54259 19.1939 2.71293 20.1942 1.57729ZM28.2907 4.54259C28.6346 4.54259 29.166 4.4795 29.4473 5.14196C29.6036 5.42587 30.6665 7.85489 30.854 8.1388C31.0103 8.42271 31.0729 8.5489 31.1979 8.5489C31.3855 8.5489 31.6043 8.51735 32.3233 8.51735C32.9797 8.51735 33.1673 8.5489 33.2924 8.5489C33.3549 8.5489 33.3861 8.4858 33.4174 8.42271L33.4487 8.17035C33.4799 8.10726 33.4487 8.04416 33.3861 8.04416H33.0735C32.6359 8.04416 32.3545 7.85489 32.0107 7.31861C31.7919 6.97161 30.9791 5.23659 30.8853 5.11041C30.7603 4.85804 30.5727 4.4795 30.1663 4.38486V4.32177C31.7606 4.16404 33.0423 3.15457 33.0423 1.95584C33.0423 0.252366 31.1979 0.157729 30.1663 0.157729C29.8224 0.157729 28.5408 0.189274 27.2904 0.189274C27.1653 0.189274 27.1341 0.22082 27.1341 0.283912L27.0715 0.536278C27.0403 0.599369 27.0715 0.630915 27.1653 0.630915H27.5717C27.9781 0.630915 28.0719 0.851735 27.9468 1.26183L25.9774 7.50789C25.8836 7.82334 25.6648 8.07571 25.3522 8.07571H25.0396C24.9458 8.07571 24.9146 8.10726 24.9146 8.17035L24.852 8.45426C24.8208 8.51735 24.852 8.58044 24.9146 8.58044C25.0709 8.58044 25.5398 8.5489 26.3838 8.5489C27.4467 8.5489 27.9781 8.58044 28.1344 8.58044C28.1969 8.58044 28.2594 8.5489 28.2907 8.4858L28.3219 8.20189C28.3532 8.1388 28.3219 8.10726 28.2594 8.10726H27.7593C27.4154 8.10726 27.2904 7.88644 27.4779 7.22398L28.2907 4.54259ZM29.4786 0.694006C29.6349 0.662461 29.7599 0.662461 29.9787 0.662461C31.1666 0.662461 31.5418 1.4511 31.5418 1.98738C31.5418 2.87066 30.9791 3.56467 30.3539 3.84858C29.5098 4.19558 28.8846 4.13249 28.3845 4.13249L29.4786 0.694006ZM39.0755 7.4448C39.013 7.63407 38.9505 7.82334 38.8254 7.88644C38.6691 8.01262 38.2315 8.17035 37.6376 8.17035C36.6997 8.17035 35.5744 7.3817 35.5744 5.48896C35.5744 2.87066 37.1999 0.567823 39.0755 0.567823C40.6386 0.567823 41.17 1.8612 41.0137 2.93375C40.9824 3.02839 41.0137 3.09148 41.0762 3.09148H41.3263C41.3888 3.12303 41.4201 3.09148 41.4513 3.02839L42.1703 0.567823C42.1703 0.504732 42.1391 0.473186 42.1078 0.473186L41.9202 0.410095C41.8577 0.378549 41.7952 0.410095 41.7952 0.473186C41.6701 0.725552 41.6076 0.851735 41.4513 0.851735C41.3888 0.851735 41.295 0.820189 41.17 0.694006C40.9199 0.504732 40.2322 0.0630915 39.2006 0.0630915C36.4497 0.0630915 34.0739 2.36593 34.0739 5.36278C34.0739 7.16088 35.4493 8.70662 37.7313 8.70662C38.7942 8.70662 39.8258 8.29653 40.1696 8.1388C40.326 8.07571 40.3885 8.01262 40.4197 7.85489L40.8261 5.96215C40.8886 5.64669 41.1075 5.55205 41.4201 5.55205H41.6076C41.6702 5.55205 41.7327 5.5205 41.7327 5.45741L41.7639 5.20505C41.7639 5.11041 41.7327 5.04732 41.6702 5.04732C41.5139 5.04732 41.2012 5.07886 40.2322 5.07886C39.2318 5.07886 38.8254 5.04732 38.6066 5.04732C38.5441 5.04732 38.4816 5.07887 38.4816 5.14196L38.4191 5.39432C38.4191 5.45741 38.4191 5.52051 38.5441 5.52051H38.9505C39.2944 5.52051 39.4819 5.61514 39.3881 6.11987L39.0755 7.4448ZM49.2977 6.30915C49.2352 6.24606 49.1726 6.2776 49.1414 6.34069C48.9538 6.56151 48.2974 7.41325 48.016 7.63407C47.7034 7.91798 47.3595 8.10726 46.9532 8.10726H44.2022L45.3901 4.35331H46.0153C46.8906 4.35331 47.3595 4.4795 47.3595 5.36278C47.3595 5.42587 47.3595 5.45741 47.4221 5.48896H47.6409C47.7034 5.48896 47.7034 5.48896 47.7347 5.42587C47.7972 4.95268 48.1723 3.43849 48.3599 2.9653C48.3911 2.93375 48.3599 2.90221 48.2974 2.90221L48.0785 2.83912C48.016 2.83912 48.016 2.87066 47.9848 2.90221C47.5471 3.88013 47.0782 3.94322 46.5468 3.94322H45.4839L46.5155 0.757098H48.4224C48.4849 0.757098 48.5787 0.788644 48.6412 0.851735L49.8916 2.30284C49.9542 2.36593 49.9854 2.39748 50.0479 2.36593L50.2042 2.30284C50.2668 2.23975 50.2668 2.23975 50.2668 2.17666L49.8916 0.536278C49.8291 0.347003 49.8291 0.283912 49.6103 0.283912C49.4853 0.283912 49.1726 0.283912 48.7037 0.315457C48.2036 0.315457 47.5471 0.315457 46.6718 0.315457H45.7965C45.5152 0.315457 45.1088 0.315457 44.7337 0.283912C44.3898 0.283912 44.1085 0.283912 44.0147 0.283912C43.9209 0.283912 43.8896 0.315457 43.8584 0.378549L43.7959 0.662461C43.7646 0.725552 43.7959 0.788644 43.8584 0.788644H44.2648C44.6399 0.788644 45.0775 0.946372 44.8587 1.64038L42.9831 7.50789C42.858 7.91798 42.608 8.17035 42.1391 8.17035H41.7327C41.6701 8.17035 41.6702 8.20189 41.6389 8.23344L41.5764 8.5489C41.5764 8.61199 41.5764 8.64353 41.6389 8.64353C41.7014 8.64353 41.9202 8.64353 42.1703 8.61199C42.4517 8.61199 42.7955 8.61199 43.1707 8.61199H44.7649C45.609 8.61199 46.4842 8.61199 47.172 8.61199C47.8597 8.61199 48.3599 8.64353 48.4537 8.64353C48.61 8.64353 48.6725 8.61199 48.735 8.42271L49.3602 6.62461C49.3915 6.52997 49.3602 6.49842 49.329 6.49842L49.2977 6.30915ZM54.1431 0.283912C52.8614 0.283912 52.2674 0.189274 52.0486 0.126183C51.9548 0.0630915 51.8923 0.0315457 51.861 0.0315457C51.7985 0.0315457 51.7673 0.0946372 51.736 0.157729C51.7047 0.22082 50.9545 1.95584 50.7982 2.23975C50.7669 2.30284 50.7669 2.33439 50.8295 2.36593L51.017 2.49211C51.0795 2.49211 51.1108 2.49211 51.1733 2.42902C51.4547 2.08202 52.1111 1.35647 52.5175 1.04101C52.7989 0.820189 53.3303 0.757098 54.4557 0.757098H54.7683L52.8926 6.84543C52.6113 7.76025 52.3925 8.10726 51.7047 8.10726H51.3921C51.2984 8.10726 51.2671 8.1388 51.2358 8.20189L51.2046 8.4858C51.2046 8.5489 51.2358 8.61199 51.3296 8.61199C51.4547 8.61199 52.1111 8.58044 53.299 8.58044C54.4557 8.58044 54.9246 8.61199 55.1121 8.61199C55.2059 8.61199 55.2372 8.58044 55.2684 8.4858L55.331 8.23344C55.331 8.17035 55.331 8.10726 55.2684 8.10726H54.737C54.1118 8.10726 53.9868 7.82334 54.2368 7.06625L56.175 0.757098H56.4251C56.9878 0.757098 57.863 0.883281 58.1444 1.07256C58.3007 1.38801 58.5508 2.14511 58.6446 2.5552C58.7071 2.71293 58.7383 2.74448 58.8009 2.74448L58.9884 2.71293C59.0509 2.71293 59.0822 2.68139 59.0822 2.58675C59.0509 2.08202 59.176 0.283912 59.2072 0.0946372C59.2072 0.0315457 59.1447 0 59.1135 0C59.0509 0 59.0509 0.0315457 58.9884 0.0630915C58.7696 0.189274 58.332 0.283912 57.2378 0.283912H54.1431ZM66.9911 3.69085C66.9911 1.41956 65.6156 0.0946372 63.6775 0.0946372C61.0829 0.0946372 59.2385 2.52366 59.2385 5.07886C59.2385 6.18297 59.5511 7.19243 60.3014 7.91798C61.0516 8.64353 62.0207 8.73817 62.4896 8.73817C65.2718 8.73817 66.9911 6.15142 66.9911 3.69085ZM62.2082 1.57729C62.6459 1.07256 63.2398 0.662461 63.9588 0.662461C65.0529 0.662461 65.6782 1.48265 65.6782 2.71293C65.6469 5.39432 64.0526 8.1388 62.2708 8.1388C61.2704 8.1388 60.4577 7.41325 60.4577 5.89905C60.4577 4.54259 61.2079 2.71293 62.2082 1.57729ZM70.3985 1.38801C70.4923 0.883281 70.6486 0.725552 71.0549 0.725552H71.2425C71.3363 0.725552 71.3676 0.662461 71.3676 0.630915L71.4301 0.347003C71.4613 0.252366 71.4301 0.22082 71.305 0.22082C71.1487 0.22082 70.6798 0.252366 69.9296 0.252366C69.1168 0.283912 68.6166 0.22082 68.4916 0.22082C68.3978 0.22082 68.3666 0.252366 68.3353 0.315457L68.304 0.599369C68.304 0.694006 68.304 0.725552 68.4291 0.725552H68.7104C68.9918 0.725552 69.023 0.946372 68.9918 1.35647L68.1165 8.26499C68.0539 8.61199 68.1165 8.76972 68.2728 8.76972C68.4603 8.76972 68.5854 8.61199 68.7417 8.45426C69.1793 7.91798 72.4929 3.28076 72.618 3.12303C72.7118 2.99685 72.8055 2.99685 72.7743 3.15457L72.4304 8.32808C72.3991 8.61199 72.4617 8.76972 72.6492 8.76972C72.8368 8.76972 72.9931 8.58044 73.1494 8.35962C73.6808 7.69716 75.2751 5.33123 75.619 4.76341C75.9003 4.25867 77.7447 1.19874 77.8697 1.04101C78.0573 0.788644 78.2761 0.694006 78.4949 0.694006H78.7138C78.7763 0.694006 78.7763 0.662461 78.8075 0.599369L78.8701 0.283912C78.8701 0.22082 78.8388 0.189274 78.745 0.189274C78.5887 0.189274 78.2449 0.22082 77.5259 0.22082C76.9007 0.22082 76.588 0.189274 76.4317 0.189274C76.3692 0.189274 76.3067 0.22082 76.3067 0.315457L76.2442 0.567823C76.2129 0.662461 76.2754 0.694006 76.338 0.694006H76.5255C76.9007 0.694006 76.9319 1.00946 76.8069 1.32492C76.6818 1.67192 76.1504 2.80757 75.5564 3.81703C75.3064 4.22713 74.1185 6.24606 73.8684 6.49842C73.7434 6.65615 73.6808 6.62461 73.7121 6.40379L74.3373 1.26183C74.3998 0.820189 74.4936 0.694006 74.7437 0.694006H74.9312C75.025 0.694006 75.0563 0.662461 75.0875 0.599369L75.1188 0.315457C75.1188 0.252366 75.1188 0.22082 74.9938 0.22082C74.8375 0.22082 74.5249 0.252366 73.8059 0.252366C73.0556 0.252366 72.743 0.22082 72.618 0.22082C72.5242 0.22082 72.4929 0.252366 72.4617 0.283912L72.3991 0.630915C72.3991 0.694006 72.4304 0.725552 72.4929 0.725552H72.6492C72.868 0.725552 72.9618 0.883281 72.9618 1.13565C72.9618 1.38801 72.8055 1.89274 72.5242 2.33438C72.4617 2.39748 69.7733 6.37224 69.6795 6.43533C69.5545 6.59306 69.4607 6.52997 69.4919 6.37224L70.3985 1.38801ZM76.4005 7.31861C76.4005 8.32808 77.2445 8.86435 78.1198 8.86435C79.9016 8.86435 80.9958 7.47634 81.6522 6.34069C82.2775 5.26814 82.8089 3.65931 83.0902 2.08202C83.1215 1.89274 83.184 1.89274 83.2153 2.01893C83.8092 4.44795 84.9346 7.19243 86.31 9.02208C87.029 10 88.6233 11.9874 91.1241 11.9874C92.5309 11.9874 93.1873 11.2934 93.3749 11.0726C93.5937 10.8517 93.75 10.4732 93.75 10.3155C93.75 10.1262 93.6562 9.90536 93.4062 9.90536C93.1561 9.90536 92.9998 10.1577 92.8747 10.694C92.7809 11.1041 92.3433 11.388 91.7181 11.388C89.5924 11.388 87.8105 9.11672 87.1853 8.04416C87.0603 7.82334 86.8415 7.57098 87.0603 6.6877C87.8418 3.15457 88.8109 1.82965 89.6549 1.23028C90.0613 0.946372 90.2801 0.883281 90.5302 0.883281C90.6865 0.883281 90.9053 1.00946 90.9678 1.16719C91.0616 1.32492 91.2492 1.5142 91.4993 1.5142C91.8119 1.5142 92.0932 1.23028 92.0932 0.883281C92.0932 0.473186 91.7494 0.0315457 91.0304 0.0315457C90.5302 0.0315457 89.9362 0.157729 89.311 0.662461C87.9668 1.70347 87.1541 4.10095 86.6226 6.52997C86.5601 6.75079 86.4976 6.87697 86.4351 6.71924C85.7786 5.64669 84.622 2.49211 84.2156 0.599369C84.1531 0.410095 84.0905 0.315457 83.8717 0.315457C81.6835 0.315457 80.4331 0.22082 79.5578 0.851735C78.9951 1.26183 78.7138 1.92429 78.7138 2.5552C78.7138 3.15457 79.0889 3.62776 79.4953 3.62776C79.8704 3.62776 80.1205 3.37539 80.1205 3.09148C80.1205 2.80757 79.9642 2.58675 79.5578 2.52366C79.3077 2.46057 79.2139 2.17666 79.2139 2.01893C79.2139 1.73502 79.6828 1.38801 80.183 1.23028C80.8707 1.00946 81.5897 1.00946 82.34 1.00946C82.6213 1.00946 82.7464 1.1041 82.7464 1.38801C82.7464 2.6183 81.7773 5.29969 80.902 6.52997C80.3706 7.25552 79.3702 8.20189 78.2136 8.20189C77.5259 8.20189 77.3383 7.91798 77.4008 7.69716C77.4633 7.41325 77.8072 7.25552 77.8072 6.90852C77.8072 6.49842 77.5259 6.30915 77.2132 6.30915C76.8069 6.30915 76.4005 6.65615 76.4005 7.31861ZM16.9119 12.9338C17.0995 12.3028 17.3495 11.9558 17.7559 11.9558H17.9435C18.0373 11.9558 18.0685 11.8927 18.0685 11.8612L18.131 11.6088C18.1623 11.5142 18.131 11.4511 18.006 11.4511C17.881 11.4511 17.5996 11.4827 16.9119 11.4827C16.1304 11.4827 15.6615 11.4511 15.5052 11.4511C15.3801 11.4511 15.3489 11.5142 15.3489 11.5773L15.3176 11.8612C15.3176 11.9243 15.3176 11.9558 15.4427 11.9558H15.849C16.2554 11.9558 16.3805 12.2397 16.1304 13.0915L15.2551 16.2461C14.8487 17.6025 14.4423 18.265 13.8796 18.7382C13.4732 19.0852 12.848 19.2745 12.2853 19.2745C11.9102 19.2745 10.6285 19.1167 10.6285 17.6341C10.6285 17.0978 10.9099 16.183 11.0037 15.9306L12.004 12.6183C12.1916 12.0189 12.5042 11.9558 12.723 11.9558H13.0669C13.1294 11.9558 13.1919 11.8927 13.1919 11.8612L13.2544 11.6088C13.2544 11.5142 13.2232 11.4511 13.1294 11.4511C13.0043 11.4511 12.598 11.4827 11.5976 11.4827C10.4722 11.4827 10.0659 11.4511 9.90956 11.4511C9.78451 11.4511 9.75325 11.4827 9.75325 11.5457L9.69073 11.8297C9.65947 11.8927 9.72199 11.9243 9.75325 11.9243H10.1909C10.5348 11.9243 10.6911 12.1136 10.5348 12.6814L9.47191 16.0883C9.40939 16.3722 9.22183 17.1293 9.22183 17.6341C9.22183 19.1483 10.4097 19.9054 11.9727 19.9054C14.2235 19.9054 15.1926 18.4543 15.849 16.2776L16.9119 12.9338ZM23.2265 19.5268C23.289 19.6845 23.4141 19.7792 23.5391 19.7792C23.6016 19.7476 23.6954 19.653 23.7892 19.4637L26.0399 12.9653C26.29 12.2713 26.5401 11.9558 26.8214 11.9558H27.1341C27.1966 11.9558 27.2278 11.9243 27.2278 11.8612L27.2904 11.6404C27.3216 11.5457 27.2904 11.4827 27.1653 11.4827C27.009 11.4827 26.7589 11.5142 26.1025 11.5142C25.2584 11.5142 24.852 11.4827 24.6957 11.4827C24.6332 11.4827 24.602 11.5457 24.5707 11.5773L24.5394 11.8612C24.5082 11.9558 24.5394 11.9874 24.6645 11.9874H25.0396C25.446 11.9874 25.5398 12.3975 25.2272 13.3754L23.9455 17.3817C23.8517 17.6656 23.7892 17.6972 23.6954 17.5394L20.9757 11.8297C20.9132 11.6719 20.8194 11.5142 20.6006 11.5142C19.1626 11.5142 18.6625 11.4827 18.5062 11.4827C18.4124 11.4827 18.3811 11.5457 18.3499 11.6088L18.2873 11.8297C18.2561 11.9243 18.2873 11.9874 18.3811 11.9874H18.85C19.3502 11.9874 19.6315 12.3344 19.3815 13.0599L17.881 17.8233C17.5058 18.9274 17.2245 19.3375 16.6618 19.3375H16.3805C16.3179 19.3375 16.2867 19.4006 16.2554 19.4322L16.2242 19.6845C16.2242 19.7792 16.2242 19.8107 16.3179 19.8107C16.4742 19.8107 16.8494 19.7792 17.7247 19.7792C18.5687 19.7792 19.0689 19.8107 19.1939 19.8107C19.3189 19.8107 19.3189 19.7792 19.3502 19.6845L19.4127 19.4322C19.4127 19.3691 19.3815 19.306 19.2877 19.306H18.8188C18.3186 19.306 18.2561 18.7382 18.6625 17.3186L19.8816 13.1861C19.9129 13.0284 20.0067 13.0284 20.0692 13.1546L23.2265 19.5268ZM27.2278 18.4227C27.0715 19.0536 26.9777 19.306 26.2588 19.306H25.7899C25.7273 19.306 25.6961 19.3375 25.6961 19.4006L25.6336 19.6845C25.6336 19.7476 25.6648 19.8107 25.7273 19.8107C25.8836 19.8107 26.5088 19.7792 27.5404 19.7792C28.7909 19.7792 29.3535 19.8107 29.5098 19.8107C29.6349 19.8107 29.6349 19.7792 29.6661 19.6845L29.6974 19.4322C29.7287 19.3691 29.6974 19.306 29.6349 19.306H29.1972C28.6971 19.306 28.5095 19.0536 28.6658 18.4543L30.1976 12.776C30.3851 12.082 30.6665 11.9558 31.1666 11.9558H31.4792C31.573 11.9558 31.6043 11.8927 31.6043 11.8612L31.6668 11.6088C31.6981 11.5142 31.6356 11.4511 31.5105 11.4511C31.3542 11.4511 30.8228 11.4827 29.7599 11.4827C28.7909 11.4827 28.1344 11.4511 27.9781 11.4511C27.8843 11.4511 27.8218 11.4827 27.8218 11.5142L27.7593 11.8297C27.7593 11.8927 27.7905 11.9243 27.8843 11.9243H28.447C28.7596 11.9243 28.9472 12.1136 28.7909 12.7445L27.2278 18.4227ZM33.6362 17.5079C33.4799 17.7287 33.3236 17.6972 33.3549 17.3817L34.1989 12.429C34.2614 12.082 34.4803 11.9243 34.8866 11.9243H35.2305C35.3243 11.9243 35.3555 11.8927 35.3555 11.8297L35.3868 11.5457C35.4181 11.4511 35.3868 11.4196 35.2618 11.4196C35.1055 11.4196 34.6053 11.4511 33.73 11.4511C32.6671 11.4511 32.167 11.4196 31.9794 11.4196C31.8856 11.4196 31.8856 11.4511 31.8544 11.5457L31.7919 11.7981C31.7606 11.8927 31.8231 11.9243 31.9169 11.9243H32.3233C32.7297 11.9243 32.8234 12.2082 32.7922 12.5868L31.8231 19.5268C31.7606 19.8107 31.7919 20 31.9794 20C32.1357 20 32.292 19.8738 32.3858 19.7792L37.6063 13.1546C38.0752 12.5552 38.7004 11.9243 39.1381 11.9243H39.4194C39.4819 11.9243 39.5132 11.8612 39.5444 11.7981L39.5757 11.5457C39.5757 11.4827 39.5757 11.4196 39.4507 11.4196C39.2944 11.4196 38.9818 11.4511 38.2628 11.4511C37.6063 11.4511 37.1999 11.4196 37.0123 11.4196C36.8873 11.4196 36.856 11.4511 36.856 11.5142L36.7935 11.7981C36.7935 11.8612 36.7935 11.9243 36.9186 11.9243H37.1686C37.5125 11.9243 37.45 12.3659 37.0123 12.9338L33.6362 17.5079ZM45.1713 17.5394C45.1088 17.4763 45.0463 17.5079 45.015 17.571C44.8275 17.7918 44.171 18.6435 43.8896 18.8644C43.577 19.1483 43.2332 19.3375 42.8268 19.3375H40.0759L41.2638 15.5836H41.889C42.7643 15.5836 43.2332 15.7098 43.2332 16.5931C43.2332 16.6562 43.2332 16.6877 43.2957 16.7192H43.5145C43.577 16.7192 43.577 16.7192 43.6083 16.6562C43.6708 16.183 44.0459 14.6688 44.2335 14.1956C44.2648 14.164 44.2335 14.1325 44.171 14.1325L43.9522 14.0694C43.8896 14.0694 43.8896 14.1009 43.8584 14.1325C43.4207 15.1104 42.9518 15.1735 42.4204 15.1735H41.3575L42.3891 11.9874H44.296C44.3585 11.9874 44.4523 12.0189 44.5148 12.082L45.7653 13.5331C45.8278 13.5962 45.859 13.6278 45.9216 13.5962L46.0779 13.5331C46.1404 13.47 46.1404 13.47 46.1404 13.4069L45.7653 11.7666C45.7027 11.5773 45.7027 11.5142 45.4839 11.5142C45.3589 11.5142 45.0463 11.5142 44.5774 11.5457C44.0772 11.5457 43.4207 11.5457 42.5454 11.5457H41.6702C41.3888 11.5457 40.9824 11.5457 40.6073 11.5142C40.2634 11.5142 39.9821 11.5142 39.8883 11.5142C39.7945 11.5142 39.7633 11.5457 39.732 11.6088L39.6695 11.8927C39.6382 11.9558 39.6695 12.0189 39.732 12.0189H40.1384C40.5135 12.0189 40.9512 12.1767 40.7323 12.8707L38.8567 18.7382C38.7317 19.1483 38.4816 19.4006 38.0127 19.4006H37.6063C37.5438 19.4006 37.5438 19.4322 37.5125 19.4637L37.45 19.7792C37.45 19.8423 37.45 19.8738 37.5125 19.8738C37.575 19.8738 37.7939 19.8738 38.0439 19.8423C38.3253 19.8423 38.6691 19.8423 39.0443 19.8423H40.6386C41.4826 19.8423 42.3579 19.8423 43.0456 19.8423C43.7333 19.8423 44.2335 19.8738 44.3273 19.8738C44.4836 19.8738 44.5461 19.8423 44.6086 19.653L45.2338 17.8549C45.2651 17.7603 45.2338 17.7287 45.2026 17.7287L45.1713 17.5394ZM49.0163 15.7729C49.3602 15.7729 49.8916 15.7098 50.173 16.3722C50.3293 16.6562 51.3921 19.0852 51.5797 19.3691C51.736 19.653 51.7985 19.7792 51.9236 19.7792C52.1111 19.7792 52.33 19.7476 53.0489 19.7476C53.7054 19.7476 53.893 19.7792 54.018 19.7792C54.0805 19.7792 54.1118 19.7161 54.1431 19.653L54.1743 19.4006C54.2056 19.3375 54.1743 19.2745 54.1118 19.2745H53.7992C53.3615 19.2745 53.0802 19.0852 52.7363 18.5489C52.5175 18.2019 51.7048 16.4669 51.611 16.3407C51.4859 16.0883 51.2984 15.7098 50.892 15.6151V15.5521C52.4863 15.3943 53.7679 14.3849 53.7679 13.1861C53.7679 11.4826 51.9236 11.388 50.892 11.388C50.5481 11.388 49.2664 11.4196 48.016 11.4196C47.891 11.4196 47.8597 11.4511 47.8597 11.5142L47.7972 11.7666C47.7659 11.8297 47.7972 11.8612 47.891 11.8612H48.2974C48.7037 11.8612 48.7975 12.082 48.6725 12.4921L46.7031 18.6435C46.6093 18.959 46.3905 19.2114 46.0779 19.2114H45.7653C45.6715 19.2114 45.6402 19.2429 45.6402 19.306L45.5777 19.5899C45.5464 19.653 45.5777 19.7161 45.6402 19.7161C45.7965 19.7161 46.2654 19.6845 47.1095 19.6845C48.1723 19.6845 48.7037 19.7161 48.86 19.7161C48.9226 19.7161 48.9851 19.6845 49.0163 19.6215L49.0476 19.3375C49.0789 19.2744 49.0476 19.2429 48.9851 19.2429H48.4849C48.1411 19.2429 48.016 19.0221 48.2036 18.3596L49.0163 15.7729ZM50.2042 11.8927C50.3605 11.8612 50.4856 11.8612 50.7044 11.8612C51.8923 11.8612 52.2674 12.6498 52.2674 13.1861C52.2674 14.0694 51.7047 14.7634 51.0795 15.0473C50.2355 15.3943 49.6103 15.3312 49.1101 15.3312L50.2042 11.8927ZM60.614 11.5457C60.614 11.4827 60.5827 11.4827 60.5202 11.4827L60.3639 11.4511C60.2701 11.4511 60.2388 11.4511 60.2388 11.5142C60.1763 11.7666 60.1138 11.9243 60.0513 11.9243C59.9888 11.9243 59.9262 11.8927 59.895 11.8612C59.7074 11.7035 59.1135 11.2934 58.457 11.2934C56.8627 11.2934 56.175 12.5868 56.175 13.47C56.175 14.7319 56.8002 15.3943 57.5817 16.2145C58.1131 16.8139 58.7383 17.2871 58.7383 18.0757C58.7383 18.7697 58.2069 19.3691 57.4254 19.3691C56.6752 19.3691 55.7061 18.5174 56.0499 16.7508C56.0499 16.6877 56.0187 16.6562 55.9874 16.6246L55.7999 16.5615C55.7373 16.5615 55.7061 16.5615 55.6748 16.6246L54.7683 19.306C54.737 19.4006 54.737 19.4006 54.8308 19.4322L54.9871 19.4953C55.0496 19.5268 55.0809 19.4953 55.1121 19.4322C55.2059 19.2745 55.331 19.0536 55.3935 18.959C55.456 18.8959 55.581 18.8644 55.7061 18.9905C56.1125 19.4322 56.6752 19.9054 57.4567 19.9054C58.7383 19.9054 59.8637 19.0536 59.8637 17.4763C59.8637 16.1199 59.0509 15.4259 58.4883 14.858C57.9256 14.2902 57.3941 13.8801 57.3941 13.0284C57.3941 12.4921 57.8005 11.8297 58.4883 11.8297C59.7387 11.8297 59.895 13.3123 59.8012 13.817C59.8012 13.8801 59.8325 13.9432 59.9262 13.9432H60.1451C60.2076 13.9432 60.2076 13.9117 60.2388 13.8801L60.614 11.5457ZM61.6143 18.4227C61.458 19.0536 61.3642 19.306 60.6452 19.306H60.1763C60.1138 19.306 60.0825 19.3375 60.0825 19.4006L60.02 19.6845C60.02 19.7476 60.0513 19.8107 60.1138 19.8107C60.2701 19.8107 60.8953 19.7792 61.9269 19.7792C63.1773 19.7792 63.74 19.8107 63.8963 19.8107C64.0213 19.8107 64.0214 19.7792 64.0526 19.6845L64.0839 19.4322C64.1151 19.3691 64.0839 19.306 64.0214 19.306H63.5837C63.0835 19.306 62.896 19.0536 63.0523 18.4543L64.584 12.776C64.7716 12.082 65.0529 11.9558 65.5531 11.9558H65.8657C65.9595 11.9558 65.9908 11.8927 65.9908 11.8612L66.0533 11.6088C66.0845 11.5142 66.022 11.4511 65.897 11.4511C65.7407 11.4511 65.2092 11.4827 64.1464 11.4827C63.1773 11.4827 62.5209 11.4511 62.3645 11.4511C62.2708 11.4511 62.2082 11.4827 62.2082 11.5142L62.1457 11.8297C62.1457 11.8927 62.177 11.9243 62.2708 11.9243H62.8335C63.1461 11.9243 63.3336 12.1136 63.1773 12.7445L61.6143 18.4227ZM69.2106 11.4827C67.9289 11.4827 67.3662 11.388 67.1161 11.3249C67.0224 11.2618 66.9598 11.2303 66.9286 11.2303C66.8661 11.2303 66.8348 11.2934 66.8035 11.3565C66.7723 11.4196 66.022 13.1546 65.8657 13.4385C65.8345 13.5016 65.8345 13.5331 65.897 13.5647L66.0845 13.6909C66.1471 13.6909 66.1783 13.6909 66.2408 13.6278C66.5222 13.2808 67.1786 12.5552 67.585 12.2397C67.8664 12.0189 68.3978 11.9558 69.5232 11.9558H69.8358L67.9602 18.0442C67.6788 18.959 67.46 19.306 66.7723 19.306H66.4597C66.3659 19.306 66.3346 19.3375 66.3034 19.4006L66.2721 19.6845C66.2721 19.7476 66.3034 19.8107 66.3971 19.8107C66.5222 19.8107 67.1787 19.7792 68.3666 19.7792C69.5232 19.7792 69.9921 19.8107 70.1797 19.8107C70.2734 19.8107 70.3047 19.7792 70.336 19.6845L70.3985 19.4322C70.3985 19.3691 70.3985 19.306 70.336 19.306H69.8358C69.2106 19.306 69.0855 19.0221 69.3356 18.265L71.2738 11.9558H71.5239C72.0865 11.9558 72.9618 12.082 73.2432 12.2713C73.3995 12.5868 73.6496 13.3439 73.7433 13.7539C73.8059 13.9117 73.8371 13.9432 73.8996 13.9432L74.0872 13.9117C74.1497 13.9117 74.181 13.8801 74.181 13.7855C74.1497 13.2808 74.2748 11.4826 74.306 11.2934C74.306 11.2303 74.2435 11.1987 74.2122 11.1987C74.1497 11.1987 74.1497 11.2303 74.0872 11.2618C73.8684 11.388 73.4307 11.4827 72.3366 11.4827H69.2106ZM78.1511 17.2555C78.2761 16.7192 78.4011 16.4669 78.5574 16.183C78.7138 15.8991 80.9645 12.7445 81.1521 12.4921C81.4021 12.1451 81.6522 11.9558 82.0586 11.9558H82.2775C82.34 11.9558 82.3712 11.9243 82.3712 11.8297L82.4337 11.5773C82.4337 11.5142 82.4025 11.4511 82.3087 11.4511C82.1524 11.4511 81.7773 11.4827 80.9958 11.4827C80.308 11.4827 79.8391 11.4511 79.6828 11.4511C79.5578 11.4511 79.5265 11.4827 79.5265 11.5457L79.4953 11.8297C79.464 11.8927 79.4953 11.9558 79.5578 11.9558H79.8391C80.2455 11.9558 80.4018 12.1451 80.2455 12.6183C80.1205 12.9968 78.4011 15.5836 78.2136 15.8675C78.1198 16.0252 78.026 16.0252 77.9635 15.836L76.9944 12.5237C76.9319 12.2713 76.9319 11.9874 77.307 11.9874H77.6196C77.6822 11.9874 77.7134 11.9558 77.7447 11.8927L77.7759 11.6088C77.7759 11.5457 77.7447 11.5142 77.6509 11.5142C77.4946 11.5142 77.0882 11.5457 76.0254 11.5457C75.0563 11.5457 74.7124 11.5142 74.5561 11.5142C74.4936 11.5142 74.4623 11.5457 74.4311 11.6088L74.3685 11.8927C74.3685 11.9558 74.3998 11.9874 74.4623 11.9874H74.7437C75.1501 11.9874 75.4001 12.1451 75.4939 12.4606L76.7756 16.2461C76.8381 16.4038 76.8381 16.7192 76.8069 16.877L76.4005 18.7066C76.338 19.0536 76.1504 19.3375 75.5877 19.3375H75.3064C75.2126 19.3375 75.1813 19.4006 75.1813 19.4322L75.1188 19.7161C75.1188 19.8107 75.1501 19.8423 75.2126 19.8423C75.3689 19.8423 75.7128 19.8107 76.8381 19.8107C77.8072 19.8107 78.2136 19.8423 78.4011 19.8423C78.4949 19.8423 78.5262 19.7792 78.5262 19.7161L78.5887 19.4322C78.5887 19.3691 78.5575 19.3375 78.4949 19.3375H78.2136C77.8072 19.3375 77.6509 19.2745 77.7759 18.6435L78.1511 17.2555Z" fill="#202020"/>
</svg>
