<svg width="94" height="19" viewBox="0 0 94 19" fill="none" xmlns="http://www.w3.org/2000/svg">
<g clip-path="url(#clip0_8918_3494)">
<path d="M94 8.59707V7.03193H91.9471V4.59865L91.878 4.61878L89.9498 5.1773L89.9118 5.18827V7.03193H86.8685V6.00496C86.8685 5.52672 86.9815 5.16073 87.204 4.91666C87.4251 4.67549 87.7413 4.55292 88.1445 4.55292C88.4344 4.55292 88.7346 4.61759 89.0366 4.74512L89.1123 4.77708V3.12875L89.0768 3.11637C88.795 3.02049 88.4116 2.97217 87.9366 2.97217C87.3378 2.97217 86.7937 3.09549 86.3193 3.33999C85.8445 3.58482 85.471 3.93435 85.2094 4.3788C84.9487 4.82271 84.8164 5.33538 84.8164 5.90273V7.03193H83.3869V8.59707H84.8164V15.1907H86.8685V8.59707H89.9118V12.7873C89.9118 14.513 90.7716 15.3876 92.4671 15.3876C92.7458 15.3876 93.039 15.3566 93.3385 15.296C93.6432 15.2339 93.8508 15.1718 93.973 15.1055L94 15.0904V13.5108L93.9166 13.5631C93.8052 13.6334 93.6665 13.6908 93.5039 13.7334C93.3405 13.7769 93.2041 13.7987 93.0985 13.7987C92.7013 13.7987 92.4075 13.6974 92.225 13.4974C92.0407 13.2956 91.9471 12.9427 91.9471 12.449V8.59707H94ZM78.8043 13.7989C78.0595 13.7989 77.4723 13.565 77.0584 13.1044C76.6421 12.6415 76.4311 11.9815 76.4311 11.143C76.4311 10.2778 76.6421 9.60073 77.0586 9.12959C77.4727 8.66158 78.0543 8.42407 78.7876 8.42407C79.4991 8.42407 80.0655 8.65092 80.4712 9.09871C80.879 9.54875 81.0859 10.2205 81.0859 11.0957C81.0859 11.9817 80.8913 12.6623 80.5076 13.1175C80.1266 13.5693 79.5536 13.7989 78.8043 13.7989ZM78.8957 6.83536C77.4746 6.83536 76.346 7.22955 75.5413 8.00707C74.7372 8.78469 74.3293 9.86073 74.3293 11.2057C74.3293 12.4831 74.7274 13.5106 75.5125 14.2592C76.2975 15.008 77.366 15.3874 78.6878 15.3874C80.0653 15.3874 81.1715 14.9877 81.9759 14.1994C82.7802 13.4119 83.1876 12.3461 83.1876 11.0325C83.1876 9.73514 82.8053 8.7 82.0508 7.95638C81.2959 7.21244 80.2342 6.83536 78.8957 6.83536ZM71.0207 6.83532C70.0541 6.83532 69.2546 7.06938 68.6438 7.53094C68.0293 7.99519 67.7176 8.60418 67.7176 9.34101C67.7176 9.72401 67.7849 10.0643 67.9174 10.3528C68.0506 10.6424 68.2568 10.8972 68.5306 11.1112C68.8025 11.3234 69.2219 11.5457 69.7779 11.7718C70.2452 11.9539 70.5938 12.108 70.8152 12.2294C71.0316 12.3483 71.1853 12.468 71.272 12.5844C71.3563 12.6984 71.3991 12.8543 71.3991 13.0469C71.3991 13.595 70.9656 13.8617 70.0735 13.8617C69.7426 13.8617 69.3651 13.7964 68.9516 13.6673C68.5378 13.5385 68.1513 13.3533 67.8028 13.1158L67.7176 13.058V14.9285L67.7489 14.9422C68.0393 15.0691 68.4053 15.1761 68.8368 15.2604C69.2675 15.3446 69.6587 15.3876 69.9987 15.3876C71.0476 15.3876 71.8922 15.1523 72.5085 14.6881C73.1287 14.2206 73.4431 13.5973 73.4431 12.8348C73.4431 12.2849 73.2739 11.8132 72.9403 11.4329C72.6091 11.0556 72.0342 10.7093 71.2321 10.4032C70.5932 10.1604 70.1839 9.95883 70.0151 9.80419C69.8524 9.65471 69.7697 9.44336 69.7697 9.17572C69.7697 8.93843 69.8717 8.74838 70.0812 8.59438C70.2923 8.43963 70.586 8.36097 70.9545 8.36097C71.2964 8.36097 71.6462 8.41208 71.994 8.51227C72.3417 8.61246 72.647 8.74666 72.902 8.91088L72.9858 8.96512V7.19077L72.9536 7.17764C72.7184 7.08218 72.4083 7.0005 72.0318 6.93421C71.6567 6.86857 71.3165 6.83532 71.0207 6.83532ZM62.3679 13.7989C61.6233 13.7989 61.0359 13.565 60.6222 13.1044C60.2057 12.6415 59.9951 11.9817 59.9951 11.143C59.9951 10.2778 60.2059 9.60073 60.6226 9.12959C61.0363 8.66158 61.6179 8.42407 62.3514 8.42407C63.0628 8.42407 63.6291 8.65092 64.0349 9.09871C64.4427 9.54875 64.6496 10.2205 64.6496 11.0957C64.6496 11.9817 64.4549 12.6623 64.0712 13.1175C63.6902 13.5693 63.1174 13.7989 62.3679 13.7989ZM62.4595 6.83536C61.0382 6.83536 59.9095 7.22955 59.1052 8.00707C58.301 8.78469 57.893 9.86073 57.893 11.2057C57.893 12.4836 58.2912 13.5106 59.0763 14.2592C59.8614 15.008 60.9297 15.3874 62.2516 15.3874C63.6288 15.3874 64.7353 14.9877 65.5397 14.1994C66.3438 13.4119 66.7515 12.3461 66.7515 11.0325C66.7515 9.73514 66.369 8.7 65.6144 7.95638C64.8593 7.21244 63.7978 6.83536 62.4595 6.83536ZM54.7779 8.4448V7.03193H52.7509V15.1905H54.7779V11.0171C54.7779 10.3074 54.9479 9.72444 55.2832 9.28409C55.6143 8.849 56.0555 8.6285 56.5942 8.6285C56.7767 8.6285 56.9817 8.65702 57.2037 8.71341C57.4234 8.76947 57.5825 8.83028 57.6764 8.89431L57.7615 8.95274V7.01794L57.7287 7.00459C57.5399 6.92862 57.2729 6.89031 56.9349 6.89031C56.4256 6.89031 55.9697 7.04527 55.5793 7.35036C55.2366 7.61853 54.9888 7.98625 54.7994 8.4448H54.7779ZM49.1208 6.83532C48.1909 6.83532 47.3614 7.02418 46.6558 7.39631C45.9488 7.7693 45.4021 8.30189 45.03 8.97911C44.6597 9.65471 44.4717 10.4438 44.4717 11.3238C44.4717 12.0947 44.654 12.8021 45.0143 13.4255C45.3749 14.05 45.8852 14.5386 46.5312 14.8775C47.1762 15.2159 47.9218 15.3876 48.7472 15.3876C49.7105 15.3876 50.533 15.2051 51.1925 14.8456L51.2191 14.8311V13.0729L51.1339 13.1317C50.8352 13.3377 50.5014 13.5021 50.1422 13.6206C49.7839 13.739 49.4573 13.7988 49.1709 13.7988C48.3755 13.7988 47.7371 13.5632 47.2735 13.0987C46.809 12.6335 46.5735 11.9804 46.5735 11.1584C46.5735 10.3313 46.8191 9.66138 47.3032 9.167C47.7857 8.67413 48.4254 8.42414 49.2044 8.42414C49.8707 8.42414 50.5199 8.63775 51.1341 9.0596L51.2191 9.11804V7.26545L51.1917 7.25082C50.9605 7.12835 50.6453 7.02719 50.2538 6.95046C49.8642 6.87395 49.4831 6.83532 49.1208 6.83532ZM43.0756 7.03195H41.0485V15.1905H43.0756V7.03195ZM42.0828 3.55632C41.7492 3.55632 41.4582 3.66383 41.2191 3.87691C40.9791 4.09063 40.8572 4.35966 40.8572 4.67713C40.8572 4.98964 40.9776 5.25373 41.2153 5.46174C41.4515 5.66912 41.7434 5.77426 42.0828 5.77426C42.422 5.77426 42.7151 5.66912 42.9541 5.46207C43.1947 5.25373 43.3167 4.98964 43.3167 4.67713C43.3167 4.37075 43.198 4.1044 42.964 3.88551C42.7303 3.66706 42.4338 3.55632 42.0828 3.55632ZM37.0252 6.43002V15.1905H39.0938V3.80616H36.2308L32.5915 12.2621L29.0598 3.80616H26.0801V15.1905H28.0241V6.42916H28.0909L31.8202 15.1905H33.2873L36.9584 6.43002H37.0252Z" fill="#FCFAF2"/>
<path d="M9.53576 9.03017H0V0.00195312H9.53576V9.03017Z" fill="#FCFAF2"/>
<path d="M20.0649 9.03017H10.5293V0.00195312H20.0649V9.03017Z" fill="#FCFAF2"/>
<path d="M9.53553 19.0019H0V9.97363H9.53553V19.0019Z" fill="#FCFAF2"/>
<path d="M20.0649 19.0019H10.5293V9.97363H20.0649V19.0019Z" fill="#FCFAF2"/>
</g>
<defs>
<clipPath id="clip0_8918_3494">
<rect width="94" height="19" fill="white" transform="translate(0 0.00195312)"/>
</clipPath>
</defs>
</svg>
