<svg width="102" height="13" viewBox="0 0 102 13" fill="none" xmlns="http://www.w3.org/2000/svg">
<path fill-rule="evenodd" clip-rule="evenodd" d="M73.5091 0.158043H71.4209V13.0009H81.2312L82.5604 10.9027H73.5091V0.158043ZM44.8736 0.793914L37.2158 13.0014H39.7477L42.0577 9.3138H46.9944L48.292 7.21614H43.3552L46.0452 2.98796L52.3428 13.002H54.8742L47.1525 0.761602C46.6777 -0.0330985 45.4117 -0.0330996 44.8736 0.793914ZM59.715 2.25242H68.4965L69.7914 0.155853L59.6507 0.161879C56.1227 0.161879 53.8007 3.03506 53.8007 6.57917C53.8007 10.1244 56.1232 12.9976 59.6507 12.9976L68.2288 12.9872L69.5716 10.9065H59.7145C57.3358 10.9065 55.945 8.9693 55.945 6.57917C55.9455 4.1896 57.3363 2.25242 59.715 2.25242ZM14.9014 0.161879H5.85052C2.32254 0.161879 0 3.03507 0 6.57973C0 10.1244 2.32254 12.9976 5.85052 12.9976H14.9014C18.4293 12.9976 20.7519 10.1244 20.7519 6.57973C20.7519 3.03507 18.4293 0.161879 14.9014 0.161879ZM14.9014 10.9065H5.85052C3.47182 10.9065 2.08102 8.9693 2.08102 6.57973C2.08102 4.19015 3.47182 2.25242 5.85052 2.25242H14.9014C17.2801 2.25242 18.6709 4.19015 18.6709 6.57973C18.6709 8.9693 17.2801 10.9065 14.9014 10.9065ZM88.5298 2.25242H97.3113L98.6072 0.155853L88.4666 0.161879C84.9375 0.161879 82.6155 3.03506 82.6155 6.57917C82.6155 10.1244 84.938 12.9976 88.4666 12.9976L97.0436 12.9872L98.3864 10.9065H88.5293C86.4984 10.9065 85.1986 9.49618 84.859 7.59679H95.9183L97.2475 5.49858H84.859C85.221 3.63917 86.5278 2.25242 88.5298 2.25242ZM32.6541 7.783C33.66 7.783 34.6248 7.38156 35.3361 6.667C36.0474 5.95243 36.447 4.98327 36.447 3.97271C36.447 2.96216 36.0474 1.993 35.3361 1.27843C34.6248 0.563866 33.66 0.162426 32.6541 0.162426L22.0053 0.158043V13.0009H24.3469V2.25296H32.6541C33.1081 2.25296 33.5436 2.43415 33.8646 2.75667C34.1857 3.07918 34.366 3.51661 34.366 3.97271C34.366 4.42882 34.1857 4.86625 33.8646 5.18876C33.5436 5.51128 33.1081 5.69246 32.6541 5.69246H25.9929L33.5073 12.9866H36.5304L31.151 7.78793L32.6541 7.783ZM100.847 0.00195312C100.219 0.00195312 99.6884 0.487206 99.6884 1.14498C99.6884 1.80879 100.219 2.29459 100.847 2.29459C101.469 2.29459 102 1.80933 102 1.14498C102 0.486659 101.468 0.00195312 100.847 0.00195312ZM100.847 2.1029C100.325 2.1029 99.9174 1.69651 99.9174 1.14444C99.9174 0.601674 100.325 0.192549 100.847 0.192549C101.363 0.192549 101.77 0.602222 101.77 1.14444C101.77 1.69651 101.363 2.1029 100.847 2.1029Z" fill="#FCFAF2"/>
</svg>
